<svg xmlns="http://www.w3.org/2000/svg" width="1184" height="864" version="1.1"><path d="M 369.962 251.946 C 269.191 269.805, 173.173 318.642, 102.789 387.836 C 80.095 410.147, 77.903 414.749, 86.077 422.923 C 90.245 427.091, 93.897 427.484, 105.518 425.015 C 165.761 412.217, 219.013 436.766, 232.463 483.537 C 237.037 499.445, 241.766 502.426, 254.786 497.609 C 311.946 476.461, 373.048 503.372, 388.907 556.679 C 392.896 570.088, 399.311 572.679, 413.568 566.638 C 467.288 543.879, 535.599 583.154, 576.021 660.040 C 586.568 680.101, 597.358 679.892, 608.366 659.413 C 651.443 579.270, 714.529 544.868, 775.063 568.511 C 784.268 572.106, 791.486 568.015, 794.554 557.463 C 809.805 505.001, 870.614 476.806, 925.893 496.565 C 942.281 502.423, 947.758 499.944, 950.865 485.263 C 960.610 439.215, 1016.795 412.462, 1077.841 424.803 C 1104.192 430.130, 1109.861 416.738, 1089.904 396.302 C 1018.293 322.970, 924.117 273.050, 819.688 253.069 C 788.731 247.145, 781.019 248.841, 781.004 261.574 C 780.943 311.354, 740.474 359.244, 686.020 373.976 C 675.113 376.927, 675.351 377.015, 674.508 369.750 C 674.110 366.313, 673.033 361.250, 672.116 358.500 L 670.448 353.500 674.264 345.268 C 689.036 313.397, 680.473 252, 661.255 252 C 650.821 252, 623.429 272.219, 610.520 289.450 L 606.811 294.401 591.774 294.450 L 576.736 294.500 571.288 287.262 C 559.388 271.451, 532.757 252.053, 522.898 252.014 C 502.042 251.933, 493.969 319.984, 511.372 349.168 L 513.686 353.048 511.343 361.137 C 510.054 365.586, 509 370.751, 509 372.613 C 509 376.772, 508.527 376.808, 496.500 373.577 C 444.470 359.598, 409.107 318.755, 403.076 265.676 C 401.105 248.337, 397.877 246.998, 369.962 251.946" stroke="#000000" fill="none"/></svg>