<svg xmlns="http://www.w3.org/2000/svg" width="1024" height="1024" viewBox="0 0 1024 1024" version="1.1"><path d="M 484.599 235.577 C 401.048 248.567, 361.892 302.246, 335.485 440 C 318.398 529.135, 306.196 562.547, 261.607 642.293 C 241.935 677.475, 240.293 687.093, 251.912 699.073 C 259.471 706.868, 265.673 708.003, 289 705.863 C 313.820 703.585, 323.646 709.368, 330.604 730.345 C 336.230 747.308, 340.904 754, 349.773 757.797 C 360.756 762.498, 370.038 761.359, 385 753.475 C 411.426 739.550, 411.558 739.500, 421.986 739.500 C 435.864 739.500, 441.957 743.300, 457.630 761.729 C 487.832 797.241, 507.532 799.633, 538.064 771.494 C 565.634 746.086, 582.648 744.194, 609.500 763.550 C 637.791 783.943, 657.264 778.460, 672.960 745.680 C 686.497 717.411, 697.721 712.166, 732.198 717.996 C 764.256 723.417, 778.909 715.727, 778.978 693.444 C 779.017 680.772, 775.606 673.592, 751.697 636.025 C 696.866 549.871, 685.158 519.042, 666.996 413 C 659.075 366.750, 657.531 359.819, 649.848 336 C 626.621 263.990, 560.460 223.783, 484.599 235.577" stroke="#000000" fill="none"/></svg>