<?xml version="1.0" encoding="UTF-8" standalone="no"?>
<svg
   viewBox="-5 0 64 64"
   version="1.1"
   id="svg1"
   sodipodi:docname="android.svg"
   inkscape:version="1.4.2 (ebf0e940, 2025-05-08)"
   xmlns:inkscape="http://www.inkscape.org/namespaces/inkscape"
   xmlns:sodipodi="http://sodipodi.sourceforge.net/DTD/sodipodi-0.dtd"
   xmlns="http://www.w3.org/2000/svg"
   xmlns:svg="http://www.w3.org/2000/svg">
  <defs
     id="defs1" />
  <sodipodi:namedview
     id="namedview1"
     pagecolor="#ffffff"
     bordercolor="#000000"
     borderopacity="0.25"
     inkscape:showpageshadow="2"
     inkscape:pageopacity="0.0"
     inkscape:pagecheckerboard="0"
     inkscape:deskcolor="#d1d1d1"
     inkscape:zoom="8.1434377"
     inkscape:cx="59.495758"
     inkscape:cy="15.902375"
     inkscape:window-width="2112"
     inkscape:window-height="1186"
     inkscape:window-x="0"
     inkscape:window-y="25"
     inkscape:window-maximized="0"
     inkscape:current-layer="svg1" />
  <path
     d="M 3.9,20.7 C 1.7,20.7 0,22.5 0,24.6 v 16.5 c 0,2.2 1.8,4 4,4 2.2,0 4,-1.8 3.9,-4 V 24.6 c 0,-2.1 -1.8,-3.9 -4,-3.9 M 35.8,5.8 38.6,0.8 C 38.7,0.5 38.7,0.2 38.4,0.1 38.1,0 36.54535,-1.0087604 36.44535,-0.80876037 L 33.470283,4.6997303 c -2.3,-1 -4.296701,-1.2401553 -6.270283,-1.1986641 -2.031313,0.042705 -3.73686,0.1694862 -6.03686,1.1694862 L 18.042184,-0.72122666 C 17.942184,-1.0212267 16.2,-0.1 16,0.1 15.7,0.2 15.6,0.6 15.8,0.8 l 2.8,5 C 12.9,8.6 9.3,14 9.3,20.1 H 44.9 C 44.9,14 41.2,8.6 35.8,5.8 M 9.4,21.4 V 47 c 0,2.3 1.9,4.2 4.2,4.2 h 2.9 V 60 c 0,2.2 1.8,4 3.9,4 2.2,0 4,-1.8 4,-4 v -8.8 h 5.3 V 60 c 0,2.2 1.8,4 3.9,3.9 2.2,0 4,-1.8 4,-4 v -8.7 h 2.9 c 2.3,0 4.2,-1.9 4.2,-4.2 V 21.4 Z m 44.8,3.2 c 0,-2.2 -1.8,-3.9 -3.9,-3.9 -2.2,0 -3.9,1.8 -3.9,4 v 16.5 c 0,2.2 1.8,3.9 3.9,3.9 2.2,0 3.9,-1.8 3.9,-4 z"
     id="path1"
     sodipodi:nodetypes="cssscscccsccscccccccccsscsssccscscssccsssssss"
     style="fill:none;stroke:#000000;stroke-opacity:1" />
</svg>
