<svg xmlns="http://www.w3.org/2000/svg" width="806" height="486" viewBox="0 0 806 486" version="1.1"><path d="M 379.500 73.600 C 361.190 75.430, 353.878 76.441, 343.154 78.622 C 306.759 86.027, 281.515 101.133, 271.116 121.729 C 267.050 129.783, 265.718 138.316, 265.691 156.500 C 265.640 189.494, 271.640 219.950, 287.616 267.797 C 291.710 280.060, 294.795 290.522, 294.471 291.047 C 294.147 291.571, 292.078 292, 289.873 292 C 280.040 292, 220.826 301.371, 196.737 306.739 C 184.555 309.454, 175.664 310.103, 174.040 308.396 C 173.571 307.903, 171.248 297.920, 168.879 286.211 C 166.509 274.502, 164.269 264.436, 163.902 263.842 C 163.445 263.103, 159.174 263.730, 150.367 265.829 C 135.345 269.409, 109.077 276.589, 108.354 277.313 C 108.079 277.588, 110.338 287.611, 113.374 299.587 C 116.410 311.564, 118.611 321.820, 118.265 322.380 C 117.762 323.193, 113.267 307.486, 108.641 288.750 C 108.267 287.238, 107.347 286, 106.596 286 C 104.731 286, 78.681 294.016, 77.775 294.868 C 77.376 295.244, 79.506 304.031, 82.509 314.396 C 85.512 324.760, 87.673 333.720, 87.311 334.306 C 86.949 334.892, 85.256 330.587, 83.548 324.741 C 81.840 318.894, 80.185 313.852, 79.869 313.536 C 79.369 313.036, 51.211 322.456, 50.209 323.458 C 49.813 323.853, 72.648 393.325, 74.091 396.116 C 74.827 397.538, 76.579 397.139, 88.713 392.781 C 96.296 390.058, 102.553 387.756, 102.618 387.665 C 102.683 387.574, 100.779 381.229, 98.387 373.564 C 94.526 361.190, 93.783 357.450, 95.532 359.199 C 95.825 359.491, 96.902 362.604, 97.926 366.115 C 102.246 380.934, 109.201 402.555, 109.868 403.245 C 110.265 403.654, 116.351 402.192, 123.393 399.995 C 130.436 397.798, 136.378 396, 136.599 396 C 137.564 396, 136.676 392.151, 131.500 373.910 C 128.475 363.248, 126 353.867, 126 353.063 C 126 349.086, 128.175 355.188, 132.928 372.500 C 140.043 398.418, 141.198 402.001, 142.433 401.994 C 143.020 401.990, 148 400.693, 153.500 399.110 C 159 397.527, 169.684 394.717, 177.243 392.866 C 184.802 391.015, 190.989 389.082, 190.993 388.571 C 190.997 388.061, 188.730 377.544, 185.954 365.200 C 183.179 352.857, 181.042 342.695, 181.204 342.618 C 181.367 342.541, 182.434 341.698, 183.575 340.743 C 187.538 337.427, 243.285 326.957, 283.237 322.025 C 288.043 321.432, 292.599 320.708, 293.361 320.415 C 294.392 320.019, 295.313 322.174, 296.955 328.816 C 304.250 358.343, 323.607 382.146, 351.500 395.891 C 357 398.602, 366 402.097, 371.500 403.660 C 380.989 406.355, 382.522 406.499, 401.500 406.488 C 419.538 406.477, 422.334 406.241, 430 404.083 C 461.680 395.165, 485.439 376.251, 498.362 349.660 C 502.702 340.730, 507 327.565, 507 323.201 C 507 321.151, 507.350 321.057, 513.250 321.525 C 535.183 323.263, 613.399 337.023, 619.345 340.190 C 621.545 341.361, 621.631 340.757, 615.433 367.953 C 612.995 378.653, 611.002 387.878, 611.005 388.453 C 611.007 389.029, 616.970 390.944, 624.255 392.710 C 631.540 394.475, 642.225 397.285, 648 398.954 C 660.298 402.507, 660.614 402.538, 661.263 400.250 C 661.536 399.287, 664.535 388.615, 667.929 376.534 C 671.323 364.452, 674.302 354.365, 674.550 354.117 C 676.236 352.431, 675.306 356.971, 670.484 373.965 C 665.323 392.155, 664.436 396, 665.401 396 C 665.622 396, 671.564 397.798, 678.607 399.995 C 685.649 402.192, 691.712 403.654, 692.081 403.245 C 692.813 402.431, 697.020 389.610, 702.087 372.750 C 703.864 366.837, 705.705 362, 706.178 362 C 707.220 362, 706.827 363.634, 702.559 377.050 C 700.731 382.798, 699.295 387.574, 699.368 387.665 C 699.440 387.756, 705.704 390.058, 713.287 392.781 C 725.421 397.139, 727.173 397.538, 727.909 396.116 C 729.386 393.259, 752.182 323.848, 751.776 323.443 C 750.598 322.265, 722.491 313.129, 721.968 313.755 C 721.626 314.165, 720.083 318.877, 718.540 324.227 C 716.997 329.577, 715.371 333.729, 714.927 333.455 C 714.484 333.181, 714.744 330.829, 715.505 328.228 C 724.268 298.298, 724.938 295.578, 723.738 294.805 C 722.235 293.836, 701.367 287.223, 697.152 286.380 C 694.325 285.815, 694.075 286.018, 693.144 289.639 C 690.251 300.889, 685.841 317.720, 685.386 319.250 C 685.100 320.212, 684.490 321, 684.031 321 C 683.573 321, 685.661 311.283, 688.672 299.406 C 691.683 287.530, 693.921 277.588, 693.646 277.313 C 691.978 275.645, 639.249 262.418, 638.250 263.417 C 637.904 263.763, 635.549 274.257, 633.016 286.738 C 628.636 308.324, 628.292 309.460, 625.956 310.032 C 624.605 310.362, 621.700 310.234, 619.500 309.747 C 584.193 301.928, 536.883 293.955, 516.250 292.348 C 509.531 291.824, 508 291.401, 508 290.065 C 508 289.162, 510.067 282.591, 512.593 275.462 C 528.623 230.224, 536.450 191.221, 536.366 157 C 536.324 139.915, 535.103 131.551, 531.444 123.276 C 520.633 98.833, 489.108 82.188, 440.925 75.484 C 430.065 73.973, 388.516 72.698, 379.500 73.600 M 378.500 113.596 C 376.850 113.825, 371.900 114.483, 367.500 115.058 C 351.132 117.196, 325.916 124.207, 313.508 130.070 C 305.953 133.639, 298.222 140.225, 296.363 144.673 C 294.497 149.140, 294.651 155.381, 296.977 169.500 C 299.764 186.412, 307.333 213.091, 315.601 235.141 L 318.091 241.781 325.343 234.641 C 343.980 216.289, 368.404 205.662, 395 204.331 C 427.117 202.724, 454.522 212.246, 475.769 232.396 C 479.768 236.189, 483.217 239.114, 483.433 238.896 C 484.282 238.040, 489.931 222.865, 493.818 211 C 504.245 179.170, 508.670 155.856, 506.093 146.327 C 503.855 138.053, 492.358 130.364, 472.868 124.106 C 447.404 115.930, 434.275 113.876, 405 113.489 C 392.075 113.319, 380.150 113.367, 378.500 113.596" stroke="#000000" fill="none" /></svg>