<?xml version="1.0" encoding="UTF-8" standalone="no"?>
<svg
   id="Layer_2"
   viewBox="0 0 494.66 720.33"
   version="1.1"
   sodipodi:docname="climber.svg"
   inkscape:version="1.4.2 (ebf0e940, 2025-05-08)"
   xmlns:inkscape="http://www.inkscape.org/namespaces/inkscape"
   xmlns:sodipodi="http://sodipodi.sourceforge.net/DTD/sodipodi-0.dtd"
   xmlns="http://www.w3.org/2000/svg"
   xmlns:svg="http://www.w3.org/2000/svg">
  <defs
     id="defs1" />
  <sodipodi:namedview
     id="namedview1"
     pagecolor="#ffffff"
     bordercolor="#000000"
     borderopacity="0.25"
     inkscape:showpageshadow="2"
     inkscape:pageopacity="0.0"
     inkscape:pagecheckerboard="0"
     inkscape:deskcolor="#d1d1d1"
     inkscape:zoom="1.6015942"
     inkscape:cx="173.26486"
     inkscape:cy="224.46384"
     inkscape:window-width="1696"
     inkscape:window-height="1230"
     inkscape:window-x="622"
     inkscape:window-y="176"
     inkscape:window-maximized="0"
     inkscape:current-layer="Layer_1-2" />
  <g
     id="Layer_1-2"
     data-name="Layer_1"
     style="fill:none;stroke:#000000;stroke-opacity:1"
     transform="matrix(0.96049623,-0.35601327,0.34754511,0.93764978,-97.762674,52.884144)"
     inkscape:transform-center-x="-224.21076"
     inkscape:transform-center-y="-39.615083">
    <path
       d="m 205.12,107.68 c -0.38,-3.71 0.54,-7.18 2.68,-10.2 m 65.58,278.81 c 3.89,8.89 7.68,17.84 11.18,26.9 4.29,11.11 8.23,22.36 12.35,33.53 2.12,5.73 17.66697,32.58619 19.40877,34.45905 1.69653,2.51731 4.18298,5.1568 6.53636,5.25477 3.29752,-0.94426 4.61862,-1.94896 6.86796,-2.93833 3.35587,-1.22069 6.07852,-2.56342 10.83127,-2.00884 -2.79939,-12.67753 -14.04013,-36.62065 -19.47013,-47.60065 -5.6,-11.34 -29.25467,-34.33101 -39.40823,-44.86491 -1.75,-3.28 -9.506,-8.01109 -11.806,-10.98109 -0.43,-0.55 -1.13,-0.9 -1.83,-1.14 1.8,3.12 3.9,6.11 5.34,9.39 z M 137.48,217.65 c 1.03,4.37 2.71,8.62 4.4,12.8 3.27,8.04 6.8,15.96 8.18,24.65 0.93,5.82 -0.58,11.17 -2.37,16.52 -1.43,4.29 -3.02,8.52 -4.42,12.82 -0.35,1.06 -0.3,2.27 -0.34,3.42 -0.09,2.49 -0.09,4.98 -0.17,7.47 -0.06,2.05 0.36308,4.44513 2.40308,4.90513 1.04872,0.54965 1.88848,2.54149 2.3028,4.14444 -0.11158,3.00302 -0.42601,4.09215 -0.76161,5.49954 -0.59048,1.85388 -0.54427,2.63089 0.0457,4.18089 0.77,2.03 1.62,2.93 4.04,2.85 4.08,-0.13 8.2,0.16 12.26,0.62 3.16,0.35 5.41,2.14 5.95,5.41 8.49,-6.14 16.77,-12.29 25.23,-18.18 4.09,-2.85 8.47,-5.29 12.81,-7.78 1.3,-0.75 2.87,-1.36 4.34,-1.42 3.31,-0.14 5.94,-1.8 8.69,-3.24 4.75,-2.5 9.46,-5.1 14.29,-7.44 1.98,-0.96 4.22,-1.41 6.38,-1.96 1.18,-0.31 1.98,-0.61 1.27,-2.04 -0.19,-0.38 -0.26,-0.89 -0.21,-1.31 0.42,-3.62 -1.19,-6.53 -3.03,-9.46 -11.11,-17.73 -22.14,-35.52 -33.22,-53.28 -1.59,-2.55 -1.58,-5.27 -1.37,-8.13 0.34,-4.6 0.44,-9.21 0.71,-13.82 0.19,-3.36 -1.17,-6.21 -2.77,-9.02 -2.85,-5.02 -3.07,-10.32 -1.66,-15.8 0.51,-2 0.98,-4 1.47,-6.01 -0.15,-0.06 -0.29,-0.13 -0.44,-0.19 -0.29,0.36 -0.64,0.7 -0.86,1.1 -7.51,13.38 -18.03,23.64 -31.6,30.84 -9.53,5.06 -19,10.22 -28.44,15.45 -4.72,2.62 -4.23,1.66 -3.11,6.4 z M 88.92,196.2 c -0.13,-0.18 -0.26,-0.35 -0.4,-0.53 -0.48,0 -0.96,-0.05 -1.43,0 -6.74,0.87 -12.55,-1.48 -17.97,-5.18 -1.89,-1.29 -3.73,-2.65 -5.64,-3.9 -0.34,-0.22 -1.12,-0.28 -1.37,-0.06 -1.6,1.41 -4.91,0.27 -5.1,3.94 -0.29,5.65 0.51,11.05 2.32,16.36 1.24,3.61 2.52,7.2 3.66,10.84 0.35,1.13 0.28,2.39 0.4,3.58 0.13,0.11 0.25,0.22 0.38,0.34 7.24,-9.59 14.89,-18.78 25.16,-25.4 z M 55.89,365.54 c 0.02,0.38 -0.01,0.89 0.21,1.11 0.42,0.4 0.99,0.82 1.52,0.86 0.32,0.02 0.89,-0.62 1,-1.06 1.27,-4.72 4.95,-7.76 9.78,-7.99 2.36,-0.11 7.39,-6.78 6.94,-9.06 -0.36,-1.8 -0.51,-3.64 -0.77,-5.57 0.03,0.02 -0.07,-0.1 -0.17,-0.11 -3.51,-0.53 -3.52,-0.52 -3.97,-4.05 -0.31,-2.42 -0.63,-4.83 -0.84,-7.26 -0.22,-2.55 1.07,-4.34 3.43,-5.7 -1.06,-0.84 -1.89,-1.6 -2.82,-2.21 -4.32,-2.81 -6.12,-6.85 -6.59,-11.9 -0.49,-5.25 -1.54,-10.45 -2.45,-16.28 -1.36,2.16 -2.44,3.84 -3.49,5.55 -1.2,1.97 -2.35,3.96 -3.54,5.93 -1.91,3.17 -2.52,6.45 -1.41,10.1 2.37,7.78 2.12,15.81 2.18,23.84 0.05,7.93 0.64,15.86 0.99,23.79 z M 205.12,107.68 c 0.45,4.43 -0.92,7.9 -3.68,11.58 -8.61,11.45 -18.19,22.04 -27.66,32.75 -5.31,6.01 -10.63,12.04 -13.95,19.46 -1.05,2.35 -3.08,2.78 -5.19,3.38 -5.16,1.46 -10.27,3.13 -15.47,4.48 -2.91,0.76 -5.95,1.03 -9.36,1.59 1.4,-4.28 3.58,-7.26 6.14,-9.93 2.79,-2.92 5.81,-5.61 8.68,-8.45 0.76,-0.76 1.48,-1.62 2.02,-2.55 1.76,-3.05 0.97,-5.95 -2.35,-8.51 -0.97,-0.74 -1.59,-1.23 -0.81,-2.6 0.66,-1.18 -0.39,-3.02 -2.01,-3.66 -1.1,-0.43 -1.6,-0.9 -1.61,-2.18 -0.02,-2.07 -1.75,-2.77 -3.38,-3.11 -1.74,-0.36 -2.27,-1.14 -1.8,-2.79 0.16,-0.55 0.2,-1.13 0.29,-1.7 0.45,-3.04 -0.65,-4.45 -3.76,-4.59 -1.92,-0.08 -3.85,0.08 -5.77,0.1 -2.61,0.03 -4.56,-1.02 -6.26,-3.1 -3.31,-4.06 -7.14,-7.66 -12.22,-9.32 -2.23,-0.72 -3.84,-1.87 -5.43,-3.47 -2.38,-2.39 -5.33,-3 -8.49,-1.65 -13.45,5.73 -24.36,14.59 -32.34,26.86 -4.7,7.23 -6.41,15.3 -5.44,23.84 0.31,2.78 1.27,5.48 1.96,8.21 0.4,1.58 0.87,3.24 -0.73,4.39 -0.71,0.51 -1.76,0.95 -2.58,0.84 -16.602784,5.69814 -16.162488,31.12899 -18.681211,49.95757 -3.112368,13.14983 -17.739627,30.51988 -20.777707,30.39638 14.279668,1.91312 14.818914,-0.14808 21.09225,-1.97141 4.58,-2.06 8.576787,-3.98868 11.926787,-7.81868 5.914112,-4.47379 6.695545,-7.48026 12.077477,-17.80654 -2.16,3.29 -9.974853,18.8435 -11.624853,22.0535 -1.14,2.2 -2.122331,4.50891 -2.962743,7.00918 -0.510686,1.75247 -1.222058,3.56508 -1.962881,5.02686 C 35.457119,278.55686 28.69,290.69 21.14,304.86 c -2.31,4.33 -1.99,9.02 -1.04,13.54 1.76,8.37 3.4,16.82 6.04,24.93 3.13,9.59 7.22,18.87 10.98,28.25 1.23,3.07 2.73,6.04 4.07,9.07 1.8,4.06 4.44,7.47 7.81,10.33 0.67,0.57 2.08642,1.58649 3.69568,2.59649 1.448771,1.10037 3.515737,1.82486 7.152039,2.94509 0.611643,0.17374 1.227004,0.25946 1.882281,0.44842 0.336419,0.14239 0.509602,0.27478 0.634775,0.5708 -0.75,2.61 -1.434775,5.2192 -2.104775,7.8392 -0.64,2.54 -1.25,5.1 -1.68,7.69 -0.46,2.76 0.55,4.27 3.32,4.9 2.11,0.48 4.3,0.7 6.46,0.88 3.76,0.31 4.31,0.81 5.37,4.43 0.4,1.37 1.13,2.71 2,3.84 3.65,4.71 7.5,9.26 11.1,14.01 4.16,5.5 5.95,6.14 12.36,3.43 4.16,-1.75 7.93,-4.14 10.77,-7.78 1.08,-1.38 1.61,-2.88 1.22,-4.65 -1.09,-4.93 -2.17,-9.87 -3.25,-14.8 -0.11,-0.47 -0.2,-0.95 -0.31,-1.5 2.3,0.62 2.90543,2.12553 4.97543,2.86553 0.5,0.18 0.5774,0.71258 4.10229,4.23497 3.88264,3.52628 7.1626,3.79073 12.18119,4.55704 6.39171,0.0199 10.15871,-1.20444 16.62597,-3.01581 6.43386,-2.88127 5.57357,-2.97087 15.2708,-7.6011 7.74922,-3.61028 14.94693,-8.59112 21.85685,-12.43297 6.91989,-4.12028 14.42389,-8.51378 20.92031,-12.02927 7.62356,-4.81971 14.85764,-7.74982 27.80716,-11.38839 0.62,-0.29 1.28,-0.52 2.44,-0.99 0,1.82 6.12,39.34 21.94,56.29 11.1,11.9 31.76945,38.51484 36.86945,44.93484 0.53,0.67 2.37275,4.97362 2.47868,7.27339 0,0 0.27322,3.7433 0.6822,7.4221 1.59,3.54 1.04967,5.39967 3.15967,8.59967 4.3,6.52 10.5,7.61 17.13,3.37 2.04,-1.31 3.88,-2.93 5.8,-4.42 1.06,-0.82 2.09,-1.66 3.45,-2.75 1.37,2.28 2.66,4.3 3.83,6.4 3.04,5.47 -0.62788,18.50229 2.23212,24.07229 0.69,1.35 2.83739,11.49741 0.43761,16.4517 L -58.952698,399.30665 69.205204,45.121885 207.8,97.48"
       id="path1"
       sodipodi:nodetypes="ccccccccccccccccccccccccccccccccccccccccccccccccccccccccccccccccccccccccccccccccccccccccccccccccccccccccccccccccccccccccccccccccccccccccccccccccccccccccccccccccccc"
       style="fill:none;stroke:#000000;stroke-opacity:1" />
  </g>
</svg>
