<?xml version="1.0" encoding="UTF-8" standalone="no"?>
<!-- Uploaded to: SVG Repo, www.svgrepo.com, Generator: SVG Repo Mixer Tools -->

<svg
   fill="#000000"
   height="800px"
   width="800px"
   version="1.1"
   id="Capa_1"
   viewBox="0 0 612 612"
   xml:space="preserve"
   sodipodi:docname="hot-coffee-svgrepo-com.svg"
   inkscape:version="1.4.2 (ebf0e940, 2025-05-08)"
   xmlns:inkscape="http://www.inkscape.org/namespaces/inkscape"
   xmlns:sodipodi="http://sodipodi.sourceforge.net/DTD/sodipodi-0.dtd"
   xmlns="http://www.w3.org/2000/svg"
   xmlns:svg="http://www.w3.org/2000/svg"><defs
   id="defs4" /><sodipodi:namedview
   id="namedview4"
   pagecolor="#ffffff"
   bordercolor="#000000"
   borderopacity="0.25"
   inkscape:showpageshadow="2"
   inkscape:pageopacity="0.0"
   inkscape:pagecheckerboard="0"
   inkscape:deskcolor="#d1d1d1"
   inkscape:zoom="0.79021328"
   inkscape:cx="355.6002"
   inkscape:cy="496.70134"
   inkscape:window-width="2048"
   inkscape:window-height="1186"
   inkscape:window-x="0"
   inkscape:window-y="25"
   inkscape:window-maximized="0"
   inkscape:current-layer="g4" />
<g
   id="g4">
	<path
   d="M597.734,554.176h-169.26c27.259-17.524,49.499-42.178,64.065-71.329h46.692c38.937,0,70.615-31.678,70.615-70.615   s-31.678-70.615-70.615-70.615h-27.781v-35.664c0-7.88-6.388-14.266-14.266-14.266h-382.37c-7.878,0-14.266,6.385-14.266,14.266   v96.702c0,63.548,33.122,119.47,82.978,151.522H14.266C6.388,554.176,0,560.562,0,568.442s6.388,14.266,14.266,14.266h266.338   h50.795h266.336c7.878,0,14.266-6.385,14.266-14.266S605.612,554.176,597.734,554.176z M539.233,370.148   c23.205,0,42.084,18.879,42.084,42.084c0,23.205-18.879,42.084-42.084,42.084h-35.37c4.916-16.374,7.589-33.71,7.589-51.662   v-32.506H539.233z"
   id="path1" />
	<path
   d="m 216.346,183.604 c 22.711,-22.711 22.711,-59.665 0,-82.379 l -1.067,-1.067 c -5.572,-5.569 -5.572,-14.602 0,-20.172 5.572,-5.572 14.602,-5.572 20.175,0 l 1.067,1.067 c 33.833,33.833 33.833,88.89 0,122.725 -11.002,11.002 -17.059,25.627 -17.059,41.188 0,15.561 6.06,30.186 17.059,41.191 5.572,5.569 5.572,14.602 0,20.172 -2.785,2.788 -6.437,4.18 -10.089,4.18 -3.652,0 -7.301,-1.392 -10.089,-4.18 -16.391,-16.388 -25.416,-38.181 -25.416,-61.363 0.003,-23.181 9.03,-44.974 25.419,-61.362 z"
   id="path2" />
	<path
   d="m 303.004,184.42 c 11.002,-11.002 17.062,-25.63 17.062,-41.191 0,-15.561 -6.06,-30.186 -17.062,-41.191 l -1.067,-1.067 c -5.572,-5.569 -5.572,-14.602 0,-20.172 5.572,-5.572 14.602,-5.572 20.175,0 l 1.067,1.067 c 16.391,16.388 25.419,38.184 25.419,61.363 0,23.179 -9.027,44.974 -25.419,61.363 -11.002,11.002 -17.059,25.627 -17.059,41.188 0,15.561 6.06,30.186 17.059,41.191 5.572,5.569 5.572,14.602 0,20.172 -2.785,2.788 -6.437,4.18 -10.089,4.18 -3.652,0 -7.301,-1.392 -10.089,-4.18 -16.391,-16.388 -25.416,-38.181 -25.416,-61.363 0,-23.179 9.028,-44.972 25.419,-61.36 z"
   id="path3" />
	<path
   d="m 379.871,182.785 c 22.708,-22.708 22.708,-59.662 0,-82.376 l -1.067,-1.067 c -5.572,-5.569 -5.572,-14.602 0,-20.172 5.572,-5.572 14.602,-5.572 20.175,0 l 1.067,1.067 c 33.833,33.833 33.833,88.89 0,122.725 -11.002,11.002 -17.062,25.627 -17.062,41.188 0,15.561 6.06,30.186 17.059,41.188 5.572,5.572 5.572,14.605 0,20.175 -2.785,2.788 -6.437,4.18 -10.089,4.18 -3.652,0 -7.301,-1.392 -10.086,-4.177 -16.391,-16.391 -25.419,-38.184 -25.419,-61.365 0.003,-23.182 9.03,-44.975 25.422,-61.366 z"
   id="path4" />
</g>
</svg>
