<svg xmlns="http://www.w3.org/2000/svg" width="1024" height="1024" viewBox="0 0 1024 1024" version="1.1"><path d="M 563.500 194.685 C 554.150 196.047, 546.087 197.560, 545.583 198.047 C 545.031 198.581, 545.346 200.442, 546.378 202.730 C 548.074 206.491, 548.062 206.587, 545.045 213.241 C 542.943 217.876, 542 221.517, 542 224.995 C 542 229.672, 542.328 230.348, 546.566 234.408 C 550.798 238.464, 551.082 239.047, 550.452 242.403 C 549.602 246.937, 548.912 247.356, 545.354 245.501 C 538.743 242.053, 529.269 244.748, 525.753 251.077 C 524.212 253.852, 523.945 255.857, 524.343 261.670 C 524.895 269.740, 523.878 271.568, 518.500 272.166 L 515.500 272.500 518.212 274.340 C 519.703 275.352, 522.853 276.432, 525.212 276.739 C 527.570 277.047, 530.571 278.130, 531.881 279.146 C 537.909 283.824, 547.533 283.379, 552 278.217 C 553.375 276.628, 554.977 274.501, 555.561 273.490 C 556.522 271.825, 556.836 271.998, 558.902 275.342 C 560.157 277.371, 562.281 279.608, 563.624 280.311 L 566.065 281.590 563.643 283.866 C 561.997 285.412, 559.181 286.440, 554.860 287.072 C 533.381 290.213, 527.584 291.391, 518.256 294.513 C 495.558 302.108, 468.578 318.546, 436.500 344.324 C 411.364 364.524, 402.500 372.796, 392.122 385.739 C 376.453 405.281, 370.683 418.149, 370.707 433.500 C 370.718 440.289, 371.247 443.851, 372.860 448 C 374.036 451.025, 374.999 453.616, 374.999 453.757 C 375 453.898, 371.896 453.725, 368.102 453.373 C 357.715 452.407, 353 454.320, 353 459.500 C 353 462.900, 354.801 464.270, 364.158 467.987 C 368.746 469.809, 375.910 473.273, 380.078 475.685 C 384.246 478.097, 389.421 480.315, 391.578 480.615 C 397.344 481.416, 399.319 482.653, 404.607 488.778 C 409.095 493.976, 409.669 495.324, 414.190 511.269 C 416.836 520.598, 419 528.897, 419 529.713 C 419 531.187, 391.313 572.879, 388.070 576.288 C 386.442 577.998, 386.002 577.881, 377.924 573.584 C 367.182 567.869, 348.235 561.524, 336 559.545 C 323.999 557.603, 303.203 557.570, 291.470 559.473 C 253.069 565.701, 219.164 587.569, 198.460 619.463 C 188.793 634.355, 183.687 646.158, 179.210 663.956 C 176.798 673.544, 176.556 676.269, 176.532 694 C 176.504 715.366, 177.544 722.452, 183.212 739.500 C 198.870 786.592, 240.071 821.673, 290.276 830.660 C 302.720 832.888, 324.619 832.876, 337 830.634 C 374.672 823.815, 408.437 801.587, 428.649 770.301 L 433.945 762.103 438.223 763.496 C 440.575 764.263, 446.183 765.856, 450.685 767.037 C 461.557 769.889, 462.642 770.720, 461.134 775.045 C 459.508 779.709, 460.757 780.658, 473.076 784.116 C 485.531 787.613, 487.329 787.669, 489.717 784.632 C 491.488 782.382, 492.128 782.271, 502.679 782.382 C 512.290 782.484, 514.061 782.245, 515.889 780.595 C 520.481 776.451, 518.326 772.522, 508.267 766.698 C 500.641 762.283, 491.971 755.184, 492.030 753.404 C 492.046 752.907, 494.805 750.927, 498.161 749.005 C 515.995 738.787, 523.232 716.705, 515.024 697.555 C 513.911 694.959, 513 692.402, 513 691.875 C 513 691.347, 525.487 677.066, 540.750 660.141 C 582.592 613.738, 627.886 563.278, 634.026 556.225 C 638.847 550.688, 639.633 550.145, 640.704 551.610 C 641.372 552.523, 642.174 555.347, 642.487 557.885 C 642.800 560.423, 643.773 564.963, 644.649 567.972 C 646.139 573.088, 646.130 573.511, 644.512 574.472 C 636.687 579.120, 624.319 587.836, 618.702 592.661 C 596.888 611.397, 581.268 639.338, 575.464 670 C 573.047 682.772, 573.037 705.898, 575.442 719.500 C 584.155 768.774, 618.857 809.259, 665.882 825.014 C 744.920 851.494, 827.322 804.929, 845.525 723.500 C 847.934 712.724, 848.543 685.591, 846.636 673.988 C 839.320 629.464, 812.020 592.110, 772.151 572.074 C 761.299 566.620, 745.894 561.566, 734.074 559.582 C 715.521 556.468, 689.993 557.899, 672.845 563.015 C 664.917 565.380, 665 565.373, 665 563.600 C 665 562.831, 663.465 559.920, 661.588 557.131 C 659.110 553.449, 655.575 544.025, 648.674 522.702 C 643.224 505.862, 638.069 491.717, 636.586 489.531 C 635.164 487.436, 634 484.676, 634 483.399 C 634 480.668, 638.030 479.224, 654.552 476.036 C 660.168 474.952, 665.904 473.545, 667.299 472.909 C 669.155 472.064, 672.427 472.020, 679.478 472.747 C 687.964 473.622, 689.470 474.076, 692.037 476.535 C 704.829 488.791, 689.639 507.175, 662.689 512.055 C 655.212 513.409, 654 514.298, 654 518.434 C 654 521.091, 656.913 526, 658.490 526 C 660.411 526, 670.947 523.390, 677.192 521.366 C 694.917 515.624, 707.312 503.065, 708.720 489.423 C 709.189 484.879, 709.651 483.942, 711.885 483.011 C 719.278 479.927, 724 475.583, 724 471.865 C 724 469.120, 725.506 469.573, 729.433 473.500 C 735.625 479.692, 739.018 477.119, 734.600 469.581 C 731.755 464.726, 718.765 452.493, 713.627 449.830 C 709.682 447.785, 700.866 445.509, 691.403 444.092 C 680.600 442.474, 672.430 439.633, 649.406 429.484 C 637.804 424.370, 623.854 418.757, 618.406 417.012 C 604.216 412.465, 603.001 411.931, 601.455 409.571 C 600.174 407.617, 593.701 384.630, 589.044 365.500 C 587.972 361.100, 585.935 350.750, 584.515 342.500 C 583.095 334.250, 581.175 325.084, 580.247 322.131 L 578.560 316.763 581.530 314.351 C 588.387 308.783, 595.552 304.666, 600.746 303.310 C 605.689 302.019, 607.088 302.041, 613.728 303.519 C 623.254 305.638, 625.510 305.082, 627.005 300.250 C 627.644 298.188, 629.479 293.962, 631.083 290.860 C 632.687 287.758, 634 284.315, 634 283.208 C 634 281.871, 635.007 280.845, 637 280.150 C 640.773 278.834, 640.857 276.624, 637.391 269.784 C 635.243 265.546, 634.896 263.826, 635.429 260.067 C 635.785 257.555, 636.342 253.363, 636.666 250.750 L 637.254 246 641.427 246 C 643.722 246, 646.140 245.460, 646.800 244.800 C 649.868 241.732, 646.400 227.973, 640.073 218.114 C 635.436 210.888, 625.091 201.621, 617.787 198.150 C 609.762 194.337, 598.222 191.971, 588.292 192.104 C 584.006 192.162, 572.850 193.323, 563.500 194.685 M 551.225 378.998 C 549.973 380.582, 546.421 383.115, 543.331 384.626 C 535.874 388.275, 528.140 388.295, 518.763 384.690 C 512.217 382.173, 511.878 382.143, 506.763 383.646 C 493.543 387.530, 479.676 397.872, 473.457 408.484 C 470.255 413.946, 469.874 413.460, 481 418.120 C 513.984 431.935, 564.890 463.623, 574.270 476.178 C 580.842 484.973, 579.872 494.868, 571.459 504.866 C 569.141 507.621, 569.044 508.001, 570.661 508.007 C 574.953 508.024, 621.614 504.846, 622.793 504.457 C 623.754 504.139, 623.818 503.529, 623.043 502.081 C 622.469 501.009, 622 498.041, 622 495.486 C 622 492.865, 620.674 487.083, 618.957 482.218 C 617.283 477.476, 616.046 472.725, 616.207 471.660 C 616.628 468.876, 622.675 466, 628.106 466 C 633.335 466, 650.223 461.970, 654.702 459.654 C 656.933 458.501, 658.600 458.352, 661.574 459.042 C 663.733 459.543, 667.975 459.926, 671 459.895 C 676.417 459.838, 676.455 459.817, 673.500 458.520 C 671.850 457.796, 662.175 455.779, 652 454.037 C 612.150 447.214, 586.106 439.480, 580.485 432.800 C 576.620 428.207, 567.782 409.529, 561.210 392.067 C 558.016 383.579, 554.975 376.518, 554.451 376.377 C 553.928 376.235, 552.476 377.415, 551.225 378.998 M 488.453 490.853 C 488.813 491.987, 491.104 497.322, 493.543 502.708 L 497.979 512.500 502.029 512.307 C 505.296 512.151, 507.074 511.220, 511.216 507.496 C 514.041 504.956, 518.381 501.689, 520.861 500.236 L 525.370 497.593 522.435 496.400 C 519.387 495.160, 499.746 490.669, 492.149 489.474 C 488.075 488.834, 487.840 488.921, 488.453 490.853 M 595.500 521.047 C 581.200 522.027, 565.926 522.867, 561.557 522.914 L 553.614 523 534.057 542.482 L 514.500 561.964 514.226 567.571 C 514.075 570.655, 512.765 576.400, 511.315 580.339 C 509.865 584.277, 505.631 596.500, 501.905 607.500 C 495.429 626.621, 495.202 627.610, 496.730 630 C 500.641 636.116, 505.800 641.400, 513.842 647.525 L 522.500 654.120 528.500 647.791 C 535.347 640.570, 553.888 619.558, 591.193 576.743 C 635.137 526.310, 632.162 530.064, 631.637 525.711 C 631.386 523.627, 630.634 521.264, 629.967 520.461 C 628.545 518.746, 629.275 518.734, 595.500 521.047 M 437.750 534.741 C 436.238 534.957, 435 535.426, 435 535.785 C 435 536.144, 436.551 541.851, 438.446 548.469 C 442.634 563.088, 450.421 590.914, 451.961 596.763 C 452.945 600.497, 453.317 600.901, 454.959 600.022 C 457.359 598.738, 465.239 586.905, 468.636 579.484 C 471.120 574.058, 471.176 573.592, 469.707 570.513 C 468.856 568.726, 463.364 561.468, 457.504 554.382 C 440.889 534.293, 440.891 534.294, 437.750 534.741 M 420.182 550.308 C 413.131 560.019, 397 583.943, 397 584.689 C 397 585.169, 400.262 588.427, 404.250 591.930 C 426.871 611.801, 441.876 637.181, 448.041 666 L 449.859 674.500 450.134 669 C 450.503 661.598, 450.017 643.168, 449.362 639.733 C 449.016 637.920, 447.741 636.414, 445.667 635.368 C 440.447 632.736, 437 628.923, 437 625.780 C 437 624.214, 438.139 620.686, 439.531 617.940 L 442.061 612.946 432.922 580.723 C 427.895 563, 423.494 548.188, 423.141 547.808 C 422.789 547.427, 421.457 548.552, 420.182 550.308 M 295.500 579.573 C 250.366 586.493, 213.368 619.072, 200.636 663.108 C 189.155 702.817, 200.602 747.405, 229.857 776.937 C 247.741 794.990, 272.545 807.466, 297.434 810.928 C 339.707 816.807, 383.817 797.924, 408.219 763.500 C 414.071 755.245, 419.309 745.309, 418.178 744.610 C 415.686 743.070, 318.334 718, 314.846 718 C 309.264 718, 302.233 715, 298.732 711.125 C 294.245 706.158, 292.669 701.248, 293.202 693.889 C 294.024 682.523, 302.505 675, 314.495 675 L 320.676 675 337.566 650.250 C 346.856 636.638, 359.079 618.836, 364.728 610.690 C 370.378 602.545, 375 595.748, 375 595.587 C 375 595.425, 370.837 593.243, 365.750 590.737 C 343.224 579.644, 319.565 575.884, 295.500 579.573 M 695.500 579.147 C 687.666 580.148, 672.997 583.873, 673.006 584.860 C 673.009 585.212, 676.774 596.975, 681.374 611 C 689.715 636.436, 691.940 641.882, 708.418 677.185 C 715.757 692.907, 716.965 696.196, 716.041 697.923 C 714.732 700.369, 710.332 701.691, 708.095 700.310 C 707.218 699.768, 704.115 694.864, 701.199 689.412 C 698.283 683.961, 691.333 671.400, 685.753 661.500 C 680.028 651.342, 670.927 632.835, 664.863 619.020 C 658.954 605.556, 653.645 594.382, 653.066 594.189 C 651.068 593.523, 637.472 603.475, 628.320 612.303 C 623.272 617.173, 616.827 624.505, 613.999 628.595 C 582.190 674.608, 587.974 737.941, 627.603 777.571 C 660.743 810.711, 710.637 820.883, 754.574 803.458 C 770.329 797.209, 788.143 784.535, 799.157 771.738 C 839.249 725.155, 837.015 656.372, 794 612.970 C 768.248 586.988, 731.881 574.500, 695.500 579.147 M 381.784 606.250 C 380.435 608.038, 370.416 622.325, 359.519 638 C 348.623 653.675, 337.718 669.132, 335.287 672.349 C 332.855 675.567, 331.068 678.401, 331.314 678.648 C 332.082 679.416, 427.451 676.775, 428.354 675.961 C 429.834 674.628, 424.321 655.410, 419.599 645.440 C 412.537 630.532, 401.845 616.252, 391.135 607.423 C 388.184 604.990, 385.425 603, 385.004 603 C 384.582 603, 383.133 604.462, 381.784 606.250 M 493.472 663.054 C 492.604 664.733, 491.651 668.221, 491.355 670.804 L 490.817 675.500 495.526 677.398 L 500.235 679.295 506.568 672.398 C 510.051 668.604, 512.775 665.056, 512.622 664.514 C 512.468 663.972, 510.578 663.222, 508.421 662.847 C 506.265 662.473, 503.233 661.679, 501.685 661.083 C 497.089 659.315, 495.167 659.776, 493.472 663.054 M 417.500 681.677 C 414.750 681.845, 394.800 682.400, 373.166 682.909 C 351.533 683.418, 333.639 684.028, 333.403 684.264 C 333.167 684.500, 333.652 686.316, 334.481 688.300 C 336.275 692.594, 334.089 692.107, 367 695.546 C 380.475 696.954, 400.050 699.140, 410.500 700.403 C 420.950 701.667, 429.901 702.478, 430.391 702.204 C 431.317 701.688, 430.490 683.601, 429.464 681.942 C 429.144 681.424, 427.446 681.083, 425.691 681.185 C 423.936 681.287, 420.250 681.508, 417.500 681.677 M 331.150 709.534 C 328.429 713.171, 327.438 715.222, 328.256 715.519 C 328.940 715.768, 337.825 718.165, 348 720.845 C 358.175 723.525, 378.800 729.010, 393.833 733.034 C 416.534 739.110, 421.315 740.109, 422.043 738.930 C 423.047 737.306, 427.755 722.488, 428.203 719.546 C 428.473 717.772, 427.347 717.428, 416 715.819 C 409.125 714.844, 388.645 711.786, 370.489 709.023 C 352.333 706.261, 336.986 704, 336.383 704 C 335.781 704, 333.426 706.490, 331.150 709.534" stroke="#000000" fill="none"/></svg>