<?xml version="1.0" encoding="UTF-8" standalone="no"?>
<!-- Created with Inkscape (http://www.inkscape.org/) -->

<svg
   width="210mm"
   height="297mm"
   viewBox="0 0 210 297"
   version="1.1"
   id="svg1"
   inkscape:export-filename="front.svg"
   inkscape:export-xdpi="96"
   inkscape:export-ydpi="96"
   sodipodi:docname="front.svg"
   inkscape:version="1.4.2 (ebf0e940, 2025-05-08)"
   xmlns:inkscape="http://www.inkscape.org/namespaces/inkscape"
   xmlns:sodipodi="http://sodipodi.sourceforge.net/DTD/sodipodi-0.dtd"
   xmlns="http://www.w3.org/2000/svg"
   xmlns:svg="http://www.w3.org/2000/svg">
  <sodipodi:namedview
     id="namedview1"
     pagecolor="#ffffff"
     bordercolor="#000000"
     borderopacity="0.25"
     inkscape:showpageshadow="2"
     inkscape:pageopacity="0.0"
     inkscape:pagecheckerboard="0"
     inkscape:deskcolor="#d1d1d1"
     inkscape:document-units="mm"
     showgrid="true"
     inkscape:zoom="2.5004408"
     inkscape:cx="179.56834"
     inkscape:cy="98.982546"
     inkscape:window-width="2448"
     inkscape:window-height="1282"
     inkscape:window-x="0"
     inkscape:window-y="25"
     inkscape:window-maximized="0"
     inkscape:current-layer="layer1">
    <inkscape:grid
       id="grid1"
       units="mm"
       originx="0"
       originy="0"
       spacingx="0.99999998"
       spacingy="1"
       empcolor="#0099e5"
       empopacity="0.30196078"
       color="#0099e5"
       opacity="0.14901961"
       empspacing="5"
       enabled="true"
       visible="true" />
    <inkscape:page
       x="0"
       y="0"
       width="210"
       height="297"
       id="page2"
       margin="0"
       bleed="0" />
  </sodipodi:namedview>
  <defs
     id="defs1">
    <clipPath
       clipPathUnits="userSpaceOnUse"
       id="clipPath2">
      <path
         d="M 0,864 H 1728 V 0 H 0 Z"
         transform="translate(-1340.6766,-608.26952)"
         id="path2" />
    </clipPath>
  </defs>
  <g
     inkscape:label="Layer 1"
     inkscape:groupmode="layer"
     id="layer1">
    <path
       id="path1"
       d="m 0,0 v 0.097 c 2.625,0 5.252,-0.057 7.876,0.018 2.178,0.063 3.21,1.523 2.593,3.402 C 8.481,9.58 6.064,15.483 1.705,20.314 -0.161,22.382 -1.993,21.773 -3.407,19.721 -6.839,14.742 -9.447,9.378 -10.815,3.442 -11.413,0.851 -10.212,-0.005 -7.878,-0.001 -5.252,0.004 -2.626,0 0,0 m -42.024,12.647 c 2.052,0 4.696,-0.104 7.326,0.033 2.061,0.108 4.108,0.502 6.158,0.794 1.775,0.252 2.221,1.25 1.41,2.787 -0.438,0.829 -1.038,1.572 -1.529,2.375 -11.986,19.625 -24.819,38.697 -37.665,57.761 -1.369,2.032 -2.666,4.117 -4.133,6.075 -2.491,3.324 -3.149,3.277 -4.888,-0.316 -3.625,-7.495 -6.604,-15.281 -8.05,-23.461 -1.951,-11.043 -0.759,-21.787 5.006,-31.709 3.14,-5.404 7.357,-9.311 13.564,-11.201 7.281,-2.216 14.57,-3.795 22.801,-3.138 M 77.824,51.729 C 78.533,62.108 75.411,72.49 68.596,81.87 64.949,86.891 65.121,87.027 61.625,81.689 49.858,63.729 38.091,45.769 26.344,27.796 c -1.028,-1.574 -1.917,-3.239 -2.856,-4.87 -1.116,-1.938 -0.858,-3.58 1.056,-4.877 3.931,-2.663 8.032,-4.913 12.856,-5.486 10.528,-1.252 20.149,0.928 28.918,7.096 3.865,2.719 6.546,6.092 8.308,10.404 2.695,6.594 3.357,13.477 3.198,21.666 M 87.67,8.97 C 87.281,9.18 86.892,9.39 86.503,9.599 84.725,6.556 82.938,3.519 81.171,0.47 73.965,-11.961 64.292,-22.199 52.976,-30.91 c -4.728,-3.639 -6.855,-3.007 -9.499,2.549 -1.699,3.57 -2.999,7.327 -4.602,10.946 -0.781,1.762 -0.973,4.052 -3.223,4.78 -1.862,-1.236 -2.622,-3.029 -3.66,-4.574 -2.733,-4.073 -5.242,-8.299 -8.074,-12.299 -3.025,-4.273 -3.702,-4.154 -7.244,-0.569 -4.24,4.292 -8.653,8.414 -12.967,12.634 -1.755,1.718 -3.634,2.857 -6.009,1.263 -6.731,-4.518 -14.226,-7.841 -20.52,-13.031 -4.623,-3.811 -5.511,-3.989 -9.813,0.503 -4.43,4.627 -8.473,9.625 -12.713,14.435 -3.198,3.629 -3.703,3.608 -5.834,-0.514 -1.297,-2.51 -2.328,-5.155 -3.543,-7.709 -0.89,-1.869 -1.858,-3.704 -2.839,-5.528 -1.274,-2.367 -3.065,-2.625 -5.125,-1.052 -1.196,0.914 -2.335,1.922 -3.4,2.987 -9.761,9.761 -19,19.944 -26.012,31.952 -1.492,2.556 -3.255,4.954 -4.882,7.408 -0.966,-0.632 -0.775,-1.201 -0.693,-1.707 2.793,-17.074 8.045,-33.307 16.118,-48.662 4.196,-7.981 10.424,-13.805 17.924,-18.392 3.853,-2.357 7.975,-4.293 12.057,-6.248 3.334,-1.596 4.006,-1.396 5.778,1.971 1.842,3.5 3.311,7.194 5.059,10.746 1.554,3.159 2.325,3.35 5.108,1.391 1.385,-0.975 2.637,-2.138 3.942,-3.225 4.513,-3.762 9.36,-7.002 14.675,-9.536 5.981,-2.849 6.734,-2.568 9.405,3.303 2.109,4.636 4.332,9.219 6.509,13.824 0.557,1.176 0.89,2.796 2.402,2.876 1.779,0.094 2.394,-1.592 3.075,-2.921 0.687,-1.342 1.428,-2.684 1.896,-4.108 1.766,-5.371 3.356,-10.801 5.172,-16.156 0.677,-1.996 0.589,-4.523 2.865,-5.723 2.476,1.351 3.842,3.43 5.325,5.352 3.457,4.483 6.812,9.045 10.239,13.551 0.911,1.198 1.814,2.447 2.934,3.431 1.963,1.724 3.225,1.515 4.482,-0.822 1.158,-2.153 2.114,-4.431 2.983,-6.721 2.29,-6.038 2.322,-6.142 8.468,-3.858 13.054,4.85 22.518,13.346 27.501,26.654 4.966,13.26 8.975,26.749 11.429,40.679"
       style="fill:none;fill-opacity:1;fill-rule:nonzero;stroke:#000000;stroke-width:0.526338;stroke-dasharray:none;stroke-opacity:1"
       transform="matrix(0.18780414,0,0,-0.1922052,20.951733,21.561196)"
       clip-path="url(#clipPath2)"
       sodipodi:nodetypes="ccccscccccccccccccsccccccccccccccccsccccccccccccccscccsccscscccccccsccscscccc" />
  </g>
</svg>
