<?xml version="1.0" encoding="UTF-8" standalone="no"?>
<!-- Created with Inkscape (http://www.inkscape.org/) -->

<svg
   width="40mm"
   height="40mm"
   viewBox="0 0 40 40"
   version="1.1"
   id="svg1"
   inkscape:version="1.4.2 (ebf0e940, 2025-05-08)"
   sodipodi:docname="ghost-2.svg"
   xmlns:inkscape="http://www.inkscape.org/namespaces/inkscape"
   xmlns:sodipodi="http://sodipodi.sourceforge.net/DTD/sodipodi-0.dtd"
   xmlns="http://www.w3.org/2000/svg"
   xmlns:svg="http://www.w3.org/2000/svg">
  <sodipodi:namedview
     id="namedview1"
     pagecolor="#ffffff"
     bordercolor="#000000"
     borderopacity="0.25"
     inkscape:showpageshadow="2"
     inkscape:pageopacity="0.0"
     inkscape:pagecheckerboard="0"
     inkscape:deskcolor="#d1d1d1"
     inkscape:document-units="mm"
     inkscape:zoom="2.8482276"
     inkscape:cx="145.70465"
     inkscape:cy="19.134707"
     inkscape:window-width="1792"
     inkscape:window-height="1186"
     inkscape:window-x="0"
     inkscape:window-y="25"
     inkscape:window-maximized="0"
     inkscape:current-layer="layer1" />
  <defs
     id="defs1" />
  <g
     inkscape:label="Layer 1"
     inkscape:groupmode="layer"
     id="layer1">
    <path
       d="m 19.461838,5.1213328 c -1.809603,0.1875205 -3.408899,1.3223103 -4.335827,3.0765029 -0.534187,1.0109465 -0.702569,1.5764435 -1.150124,3.8629983 -0.293596,1.499929 -0.321651,1.600043 -0.512468,1.829317 -0.466805,0.560937 -1.17709,0.438588 -2.682808,-0.46211 -3.0008802,-1.795055 -4.506649,-1.284147 -5.3146775,1.803226 -0.3399749,1.299028 -1.1472123,5.146822 1.7471027,3.45634 0.970331,-0.779431 1.5680317,-0.04087 2.0913191,0.813971 0.8801787,1.457443 1.7537847,1.634225 2.8195287,0.570525 0.453256,-0.452366 0.609421,0.08655 0.609421,0.341149 0,0.761163 -0.329805,2.176934 -1.668565,3.907236 -1.1019859,1.140169 -1.7747563,1.808777 -1.9174711,2.149192 -0.523897,1.249754 -0.283585,2.391505 0.585724,2.574534 1.2897121,0.310937 1.6480991,-0.21493 2.4593611,-0.204609 1.305804,0.01661 1.241218,0.237927 1.707972,0.716983 0.267359,0.383695 0.166233,0.29956 0.425057,1.508779 0.609573,1.379182 1.385927,1.828608 3.084648,1.278392 1.330265,-0.430877 1.357691,0.941022 2.020112,1.543422 1.655856,1.50577 2.620156,1.308885 4.632187,-0.463747 0.595363,-0.524505 0.930247,-1.046911 1.712868,-2.672049 0.50796,-1.05463 0.838864,-1.485336 1.067804,-1.596723 0.191716,-0.09333 0.281787,-0.298235 1.505149,0.09064 1.29768,0.412498 1.794378,-0.426959 1.847438,-1.362466 0.03569,-0.629042 -0.356017,-1.706549 -1.304585,-3.588539 -0.689682,-1.368334 -1.573794,-2.186009 -1.785188,-3.385261 -0.125982,-0.714617 0.248672,-1.118866 0.702961,-0.688425 1.098708,1.041071 2.046573,0.743128 3.001212,-0.829124 0.432086,-0.797967 0.992326,-1.173333 1.793004,-0.669588 2.093386,1.337661 2.795636,0.127378 1.934175,-3.333465 -0.731418,-2.938519 -2.289506,-3.7072 -4.657261,-2.297663 -0.183792,0.10941 -0.963326,1.030203 -1.024817,1.063521 -0.760524,0.392198 -1.185844,0.332642 -2.086192,0.04562 -0.418704,-0.192602 -0.60586,-0.673781 -1.004756,-2.583381 C 25.244355,9.1281586 24.838937,8.0762986 23.996118,7.0292821 22.960177,5.7423596 21.084653,4.9531693 19.461838,5.1213328"
       stroke="#000000"
       fill="none"
       id="path1"
       style="stroke-width:1;stroke-dasharray:none" />
  </g>
</svg>
