<?xml version="1.0" encoding="UTF-8" standalone="no"?>
<svg xmlns="http://www.w3.org/2000/svg" xmlns:svg="http://www.w3.org/2000/svg">
  <path
     d="M 72.871519,0.18087234 C 63.698659,1.1314123 55.591839,6.8836523 50.893249,15.775642 c -2.70779,5.12448 -3.56132,7.99098 -5.82997,19.58151 -1.48824,7.60313 -1.63045,8.1106 -2.5977,9.27279 -2.36623,2.84339 -5.96666,2.2232 -13.59913,-2.34243 -15.21144,-9.09912 -22.8441703,-6.50933 -26.9400603,9.14054 -1.72333002,6.58476 -5.81521,26.0892 8.8560503,17.52016 4.9186,-3.95093 7.94834,-0.2072 10.60088,4.12601 4.46162,7.38777 8.88992,8.28388 14.29217,2.89199 2.29755,-2.29304 3.08915,0.4387 3.08915,1.72928 0,3.85833 -1.67178,11.03486 -8.45794,19.80575 -5.58596,5.779508 -8.99623,9.168678 -9.71965,10.894238 -2.65563,6.33499 -1.43749,12.12252 2.96903,13.05029 6.53754,1.57614 8.3542,-1.08948 12.46648,-1.03716 6.61911,0.0842 6.29173,1.20605 8.6577,3.63438 1.35524,1.94495 0.84263,1.51847 2.15461,7.64799 3.08992,6.99106 7.02525,9.2692 15.63606,6.48016 6.7431,-2.18411 6.88212,4.77003 10.23993,7.82359 8.39352,7.63274 13.28155,6.63473 23.48052,-2.35073 3.01789,-2.65871 4.715411,-5.30678 8.682511,-13.54459 2.57485,-5.34591 4.2522,-7.52916 5.41269,-8.09378 0.97181,-0.47308 1.42838,-1.51175 7.62959,0.45944 6.57793,2.09095 9.09569,-2.16425 9.36465,-6.90633 0.18094,-3.18861 -1.80465,-8.65048 -6.61293,-18.190278 -3.49599,-6.93607 -7.97755,-11.08086 -9.04911,-17.15986 -0.6386,-3.62239 1.26052,-5.67152 3.56331,-3.48962 5.56934,5.27718 10.37406,3.76691 15.21312,-4.20282 2.19024,-4.04489 5.03009,-5.94762 9.08872,-3.39414 10.61136,6.78059 14.17106,0.64568 9.80432,-16.89731 -3.70755,-14.89531 -11.60549,-18.79175 -23.60762,-11.64682 -0.93164,0.5546 -4.88309,5.22209 -5.19479,5.39098 -3.85509,1.98805 -6.01103,1.68616 -10.57489,0.23127 -2.12241,-0.9763 -3.0711,-3.41539 -5.0931,-13.09514 -2.6348,-12.61356 -4.68986,-17.94543 -8.962101,-23.2527497 -5.25118,-6.5234 -14.75819,-10.52379996 -22.98423,-9.67137996"
     stroke="#000000" fill="none"/>
</svg>
