<?xml version="1.0" encoding="UTF-8" standalone="no"?>
<!-- Created with Inkscape (http://www.inkscape.org/) -->

<svg
   width="40mm"
   height="40mm"
   viewBox="0 0 40 40"
   version="1.1"
   id="svg1"
   inkscape:version="1.4.2 (ebf0e940, 2025-05-08)"
   sodipodi:docname="ghost-1.svg"
   xmlns:inkscape="http://www.inkscape.org/namespaces/inkscape"
   xmlns:sodipodi="http://sodipodi.sourceforge.net/DTD/sodipodi-0.dtd"
   xmlns="http://www.w3.org/2000/svg"
   xmlns:svg="http://www.w3.org/2000/svg">
  <sodipodi:namedview
     id="namedview1"
     pagecolor="#ffffff"
     bordercolor="#000000"
     borderopacity="0.25"
     inkscape:showpageshadow="2"
     inkscape:pageopacity="0.0"
     inkscape:pagecheckerboard="0"
     inkscape:deskcolor="#d1d1d1"
     inkscape:document-units="mm"
     inkscape:zoom="3.1428557"
     inkscape:cx="110.09096"
     inkscape:cy="135.70461"
     inkscape:window-width="1968"
     inkscape:window-height="1186"
     inkscape:window-x="490"
     inkscape:window-y="25"
     inkscape:window-maximized="0"
     inkscape:current-layer="layer1" />
  <defs
     id="defs1" />
  <g
     inkscape:label="Layer 1"
     inkscape:groupmode="layer"
     id="layer1">
    <g
       id="g1">
      <path
         d="m 18.475072,4.5420419 c -4.682167,0.7279549 -6.876455,3.7361064 -8.356294,11.4557901 -0.9575488,4.995092 -1.6413445,6.867489 -4.1400958,11.336424 -1.1024115,1.971587 -1.1944286,2.510578 -0.5433041,3.181933 0.4236035,0.436828 0.7711614,0.500431 2.0783978,0.380509 1.3909039,-0.127659 1.9415492,0.196417 2.331473,1.371962 0.3152791,0.950599 0.5772081,1.325616 1.0742241,1.5384 0.615483,0.263441 1.135643,0.199612 1.974108,-0.242203 1.480903,-0.780352 1.4883,-0.783154 2.072682,-0.783154 0.777718,0 1.119167,0.212949 1.997476,1.245704 1.69251,1.99008 2.79649,2.124126 4.507493,0.547228 1.545013,-1.423856 2.49847,-1.529883 4.003247,-0.445179 1.585417,1.142815 2.676677,0.83555 3.556275,-1.00143 0.758608,-1.584185 1.387598,-1.87811 3.319677,-1.551399 1.796517,0.303789 2.617666,-0.127155 2.621532,-1.375885 0.0022,-0.710135 -0.188965,-1.112499 -1.528816,-3.21774 -3.07271,-4.82804 -3.728821,-6.555685 -4.746614,-12.49824 C 28.252644,11.892929 28.166117,11.504518 27.735566,10.16971 26.433932,6.1342959 22.726295,3.8811104 18.475072,4.5420419"
         stroke="#000000"
         fill="none"
         id="path1"
         style="stroke-width:1" />
    </g>
  </g>
</svg>
