<?xml version="1.0" encoding="UTF-8" standalone="no"?>
<svg
   height="24"
   viewBox="0 0 24 24"
   width="24"
   version="1.1"
   id="svg5"
   sodipodi:docname="google.svg"
   inkscape:version="1.4.2 (ebf0e940, 2025-05-08)"
   xmlns:inkscape="http://www.inkscape.org/namespaces/inkscape"
   xmlns:sodipodi="http://sodipodi.sourceforge.net/DTD/sodipodi-0.dtd"
   xmlns="http://www.w3.org/2000/svg"
   xmlns:svg="http://www.w3.org/2000/svg">
  <defs
     id="defs5" />
  <sodipodi:namedview
     id="namedview5"
     pagecolor="#ffffff"
     bordercolor="#000000"
     borderopacity="0.25"
     inkscape:showpageshadow="2"
     inkscape:pageopacity="0.0"
     inkscape:pagecheckerboard="0"
     inkscape:deskcolor="#d1d1d1"
     inkscape:zoom="18.748432"
     inkscape:cx="10.747565"
     inkscape:cy="11.014254"
     inkscape:window-width="1728"
     inkscape:window-height="1186"
     inkscape:window-x="0"
     inkscape:window-y="25"
     inkscape:window-maximized="0"
     inkscape:current-layer="svg5" />
  <g
     id="g1"
     style="fill:#000000;fill-opacity:1;stroke-width:0.1;stroke-dasharray:none">
    <g
       id="g5"
       style="fill:#000000;stroke:#000000;stroke-opacity:1;fill-opacity:1;stroke-width:0.1;stroke-dasharray:none">
      <path
         d="M 15.71,17.57 C 14.73,18.23 13.48,18.63 12,18.63 9.14,18.63 6.71,16.7 5.84,14.095 5.62,13.43 5.49,12.73 5.49,12 5.49,11.27 5.62,10.57 5.84,9.91 6.71,7.31 9.14,5.38 12,5.38 c 1.62,0 3.06,0.56 4.21,1.64 L 19.36,3.87 C 17.45,2.09 14.97,1 12,1 7.7,1 3.99,3.47 2.18,7.07 1.43,8.55 1,10.22 1,12 1,13.78 1.43,15.45 2.18,16.935 3.99,20.53 7.7,23 12,23 c 2.97,0 5.46,-0.98 7.28,-2.66 2.08,-1.92 3.28,-4.74 3.28,-8.09 0,-0.78 -0.07,-1.53 -0.2,-2.25 H 12 v 4.26 h 5.92 c -0.26,1.37 -1.04,2.53 -2.21,3.31"
         fill="#34A853"
         id="path2"
         style="fill:none;fill-opacity:1;stroke:#000000;stroke-width:0.1;stroke-dasharray:none;stroke-opacity:1"
         sodipodi:nodetypes="cscscsccscccscsccccc" />
    </g>
  </g>
</svg>
