<?xml version="1.0" encoding="utf-8"?>
<!-- Generator: Adobe Illustrator 16.0.0, SVG Export Plug-In . SVG Version: 6.00 Build 0)  -->
<!DOCTYPE svg PUBLIC "-//W3C//DTD SVG 1.1//EN" "http://www.w3.org/Graphics/SVG/1.1/DTD/svg11.dtd">
<svg version="1.1" id="Layer_1" xmlns="http://www.w3.org/2000/svg" xmlns:xlink="http://www.w3.org/1999/xlink" x="0px" y="0px"
	 width="283.46px" height="283.46px" viewBox="0 0 283.46 283.46" enable-background="new 0 0 283.46 283.46" xml:space="preserve">
<path d="M277.043,55.871c0-1.815-2.056-3.479-2.056-3.479h-8.099c-1.674-16.484-11.676-29.169-23.798-29.169
	c-12.167,0-22.2,12.777-23.817,29.35c-1.33-0.593-2.979-1.208-4.127-1.208c-1.766,0-2.573,3.117-2.83,5.099l-114.74,5.253
	c-1.229-2.083-3.554-5.558-5.403-5.558c0,0-1.305,0-1.749,0.681c0,0-2.105-0.83-2.609,1.275c0,0-2.135-0.03-1.927,1.334
	c0,0-2.234-0.362-3.032,2.94l-2.912,0.134C75.035,23.506,55.622,25.24,55.622,25.24c-16.838,0-19.13,25.413-19.13,25.413
	c-6.246,0.949-6.482,12.018-6.482,12.018L9.219,63.304c0,0-2.292,1.58-2.292,4.741c0,3.164,3.083,4.744,3.083,4.744l20.237-1.186
	c2.372,11.62,8.854,10.987,8.854,10.987c5.376,18.815,17.233,22.133,17.233,22.133h8.38c15.955-4.612,15.963-30.326,15.526-38.74
	l2.301-0.111c0.002,3.91,1.08,8.234,3.833,13.083c3.32,5.849,3.794,4.269,6.641,9.485c2.846,5.217,7.588,13.992,11.146,16.521
	c3.558,2.53,3.874,3.319,5.296,5.06c1.423,1.739,7.51,8.696,9.645,11.463s2.607,3.161,3.399,4.347
	c0.791,1.186,4.348,4.271,5.771,4.903c1.423,0.631,3.32,1.422,3.398,3.557c0.079,2.134,1.818,15.334,0,20.671
	c-1.818,5.336-7.51,11.265-11.779,14.94s-14.111,12.568-14.111,18.854s2.964,20.869,17.55,22.885c0,0-3.676,11.977-4.269,16.126
	c-0.593,4.15-1.66,4.98-2.964,6.049c-1.304,1.066-3.32,4.031-3.794,7.47c-0.474,3.439-1.422,8.182-1.422,8.182
	s1.739,2.214,2.608,4.823c0.87,2.607,4.19,6.64,12.806,6.64c0,0,5.218,0.396,5.218-2.609c0-3.005-0.534-6.067-2.846-10.514
	c0,0-1.423-6.403-1.423-8.656s0.534-7.589,4.743-10.612s10.316-6.403,12.273-10.553c1.956-4.151,3.023-4.389,4.209-5.988
	c1.186-1.602,2.49-4.21,2.49-4.21s8.697,4.288,21.66-2.588c0,0-2.608,5.294-3.953,7.192c-1.344,1.896-5.137,7.036-6.877,9.407
	c-1.74,2.373-3.162,4.428-3.162,4.428s-2.865-0.949-3.873,3.379s-0.415,5.157-1.068,6.64c-0.651,1.482-2.252,5.573-0.948,6.581
	c1.305,1.008,5.159,1.898,8.301,2.074c3.143,0.179,5.218,1.424,8.063,2.906s7.471,3.478,12.371,3.478s4.743-0.83,4.743-2.608
	s-1.106-3.834-3.241-5.375s-4.348-2.57-4.743-4.189c-0.395-1.621,0.315-2.768-3.913-4.349c-4.229-1.58-3.824-4.536-3.883-5.127
	c-0.06-0.594,4.832-6.968,12.064-11.355c7.233-4.387,12.807-7.232,15-11.56c0,0,4.684-4.21,4.684-10.376
	c0-6.165-8.182-17.549-37.826-18.616c0,0,4.092-3.024,6.226-6.818c2.135-3.794,6.048-6.878,8.183-9.427s4.366-6.246,3.813-15.179
	c0,0,0.04-5.216,1.581-9.01c1.541-3.795,1.896-7.945,1.896-7.945s1.66-3.795,4.862-6.285c3.202-2.489,6.997-7.113,10.198-10.197
	c3.201-3.082,10.79-9.721,13.794-17.232c3.004-7.511,3.715-9.249,4.11-11.067c0.355-1.631,1.177-6.1,4.363-7.808
	c4.354,8.776,11.551,14.527,19.708,14.527c12.774,0,23.196-14.08,23.993-31.858h8.221C275.305,59.429,277.043,57.691,277.043,55.871
	z M217.281,66.78c-0.712,1.108-6.009,10.99-9.329,15.337c-3.319,4.347-7.509,10.197-8.932,13.518
	c-1.423,3.321-3.399,6.718-5.929,8.3c-2.53,1.581-4.902,4.507-4.902,4.507s-0.395-5.69-5.217-10.04
	c-4.822-4.349-9.011-7.747-14.545-7.747s-11.303,8.302-11.383,11.067c0,0-11.424,4.742-10.119,18.379l0.096,0.476
	c-3.117-2.312-8.83-6.035-14.443-6.998c0,0-5.969-6.957-11.265-9.565c0,0-2.293-0.947-3.32-3.082
	c-1.028-2.135-3.616-6.087-8.241-10.89c-4.625-4.802-7.708-7.47-8.716-9.308c-1.008-1.837-4.625-9.308-4.328-9.96
	c0.296-0.652,1.956-1.246,1.897-2.076c-0.051-0.717-0.274-2.402,0.617-3.611l113.647-5.375c0.701,1.352,1.889,2.838,3.145,3.593
	C217.992,64.487,217.992,65.676,217.281,66.78z"/>
</svg>
