<?xml version="1.0" encoding="UTF-8" standalone="no"?>
<!-- Created with Inkscape (http://www.inkscape.org/) -->

<svg
   width="210mm"
   height="297mm"
   viewBox="0 0 210 297"
   version="1.1"
   id="svg1"
   inkscape:version="1.4.2 (ebf0e940, 2025-05-08)"
   sodipodi:docname="quickshare.svg"
   xmlns:inkscape="http://www.inkscape.org/namespaces/inkscape"
   xmlns:sodipodi="http://sodipodi.sourceforge.net/DTD/sodipodi-0.dtd"
   xmlns="http://www.w3.org/2000/svg"
   xmlns:svg="http://www.w3.org/2000/svg">
  <sodipodi:namedview
     id="namedview1"
     pagecolor="#ffffff"
     bordercolor="#000000"
     borderopacity="0.25"
     inkscape:showpageshadow="2"
     inkscape:pageopacity="0.0"
     inkscape:pagecheckerboard="0"
     inkscape:deskcolor="#d1d1d1"
     inkscape:document-units="mm"
     inkscape:zoom="10.704658"
     inkscape:cx="400.5733"
     inkscape:cy="578.86018"
     inkscape:window-width="1856"
     inkscape:window-height="1186"
     inkscape:window-x="0"
     inkscape:window-y="25"
     inkscape:window-maximized="0"
     inkscape:current-layer="layer1" />
  <defs
     id="defs1" />
  <g
     inkscape:label="Layer 1"
     inkscape:groupmode="layer"
     id="layer1">
    <g
       id="g4"
       transform="matrix(0.26458333,0,0,0.26458333,100.85035,144.2421)">
      <path
         d="m 25.71,15.946 a 0.954,0.954 0 0 1 -0.948,-0.854 c -0.463,-4.48 -4.23,-7.858 -8.761,-7.858 -3.672,0 -6.896,2.234 -8.2,5.554 h 5.796 l -0.47,-0.467 a 0.842,0.842 0 0 1 0,-1.194 0.852,0.852 0 0 1 1.201,0 l 2.023,2.013 a 0.842,0.842 0 0 1 0,1.195 l -2.022,2.013 a 0.851,0.851 0 0 1 -1.2,0 0.842,0.842 0 0 1 0,-1.194 l 0.465,-0.464 h -7.02 c -0.292,0 -0.611,-0.156 -0.793,-0.385 A 1.056,1.056 0 0 1 5.594,13.443 c 1.18,-4.775 5.46,-8.11 10.407,-8.11 5.514,0 10.098,4.113 10.661,9.565 a 0.952,0.952 0 0 1 -0.951,1.048 z"
         id="path1"
         style="fill:#ffffff;fill-opacity:1;stroke:#000000;stroke-opacity:1" />
      <path
         d="m 6.192,16.047 a 0.955,0.955 0 0 1 1.047,0.85 c 0.016,0.16 0.037,0.319 0.062,0.476 0.676,4.284 4.335,7.392 8.7,7.392 3.673,0 6.898,-2.235 8.2,-5.558 h -5.8 l 0.472,0.47 a 0.842,0.842 0 0 1 0,1.195 0.851,0.851 0 0 1 -1.2,0 L 15.65,18.86 a 0.842,0.842 0 0 1 0,-1.195 l 2.023,-2.013 a 0.852,0.852 0 0 1 1.2,0 0.842,0.842 0 0 1 0,1.194 l -0.462,0.46 h 7.017 c 0.293,0 0.613,0.156 0.793,0.385 0.182,0.23 0.258,0.577 0.188,0.861 C 25.23,23.33 20.95,26.667 16,26.667 c -5.31,0 -9.763,-3.785 -10.586,-9 -0.03,-0.191 -0.055,-0.383 -0.076,-0.578 a 0.952,0.952 0 0 1 0.854,-1.042 z"
         id="path2"
         style="fill:#ffffff;fill-opacity:1;stroke:#000000;stroke-opacity:1" />
    </g>
  </g>
</svg>
