<svg id="Layer_1" data-name="Layer 1" xmlns="http://www.w3.org/2000/svg" viewBox="0 0 2110.68 2280.52"><path d="M1509.51,3104.21c-4.32,9.47-4.13,17.92-3.28,26.42a80.94,80.94,0,0,0,8.65,28.52c2.79,5.52,5.43,11.13,7.84,16.82,1.76,4.16,1.08,6.35-1.75,8.06-3.33,2-6.07.63-8.24-1.85-7.62-8.7-12.93-18.81-17-29.56a81.14,81.14,0,0,1-4.42-41.08c-2.26,1.49-3.94,2.22-5.12,3.43-7,7.14-13.67,14.59-20.82,21.55-10.73,10.45-21.51,20.88-32.79,30.73-6.23,5.45-11.42,11.33-14.87,18.85-4.36,9.51-8.92,18.92-13.44,28.36-6.34,13.26-9.1,27.46-11.49,41.83a163.3,163.3,0,0,1-5.22,20.7c-2.2,7.27-7.13,12.59-14.32,14.87a123.26,123.26,0,0,1-21.45,4.84c-10.07,1.3-17.84-3.34-22.26-12.21a186.1,186.1,0,0,1-10.83-26.33c-10.75-33.75-12.1-68.21-7-103.1,1.56-10.58,2.64-21.24,3.8-31.89a67.92,67.92,0,0,1,10.76-30.63c10-15.23,16.47-32.15,22.22-49.32,4-12,4-24.38,2.42-36.76-3.83-30.29,0-59.26,13.78-86.79,3.82-7.63,6.7-15.76,9.63-23.79,3.79-10.4,8.87-20,16.27-28.28a41.36,41.36,0,0,1,5.13-4.95c5.91-4.71,12.47-6,19.28-2.33a118.48,118.48,0,0,1,13.75,8.88c4,3,7.64,6.44,11.48,9.63,9.16,7.61,19.49,12.76,31.31,14.6a120.67,120.67,0,0,1,31.86,10.08,34.3,34.3,0,0,0,10.89,3c8.66.82,17.27,1.29,22.82,10.63,6.74-4.5,13.14-8.15,18.84-12.69,17.7-14.07,35.52-28,52.59-42.84,53.22-46.2,106-92.88,159.17-139.18,20.46-17.83,41.37-35.11,64.52-49.51a371.13,371.13,0,0,1,124.75-49.2,525.91,525.91,0,0,0,110.13-34.23c32.28-14.23,60.74-33.67,84.8-59.38,18.86-20.17,37.32-40.73,55.8-61.25,40.64-45.13,81.55-90,125.38-132.09,11.67-11.22,23.72-22.05,35.61-33,2.27-2.1,4.57-4.18,7-6.15,16.78-13.77,24.41-31.61,24.57-53.17a184.1,184.1,0,0,1,7.67-50.67c10.88-37.1,33.78-65,65.73-86.06,18.25-12,38.35-19.91,58.88-26.95,19.36-6.64,38.74-13.47,56.27-24.2,48.16-29.48,78.7-71.77,89.92-127.32,6.15-30.46,7.05-61.46,6.9-92.44-.18-38.6-3.24-77-7.89-115.36-3.94-32.36-7.94-64.71-14.6-96.66-.58-2.79-1.15-5.6-1.95-8.33-1.94-6.67-4.48-8.72-11.42-8.09-8.28.76-16.66,1.5-24.74,3.34-40.57,9.26-81,19-121.58,28.34-44.94,10.39-89.89,20.77-134.94,30.74-9.61,2.13-17.39,6.17-23,14.22-7.58,11-15.58,21.65-22.49,33-22.12,36.4-43.57,73.21-65.75,109.58a706.27,706.27,0,0,0-62.8,131.87c-5.89,16.58-12.17,33-19,49.28a46,46,0,0,0-.44,36.06,91.7,91.7,0,0,1,6.67,29.08c.6,12.37-1.21,24.38-6.58,35.45a178.39,178.39,0,0,1-15.41,26.45c-10.08,14-25.12,18.92-41.68,19.87-4.36.25-7.75-2.21-10.24-5.61s-4.51-6.72-6.7-10.12c-3.05-4.72-6.66-8.46-12.54-9.83a10.26,10.26,0,0,1-5.84-4.61c-4.83-8.65-11.38-15.8-18.47-22.57-3.61-3.45-7.36-6.81-10.62-10.58a105.3,105.3,0,0,1-10.37-13.58c-6.84-11.1-6.49-22.22,1.73-32.54,8.89-11.17,17.6-22.56,27.26-33,22-23.88,37.3-51.44,48-81.93,14.34-40.85,29.09-81.56,44-122.22,18.67-51,40.28-100.71,67-148.12a318,318,0,0,0,17.34-35.19c6.69-16.24,18.21-27.18,33.95-33.8,25.65-10.79,51.33-21.5,77.27-31.55,31.26-12.11,62.66-23.89,94.25-35.11,42-14.91,85.46-24.51,129.22-32.65a68.07,68.07,0,0,0,24.39-9.64c15.27-9.71,30.75-19,47.54-26,25.82-10.69,52.63-16.38,80.61-16.15,5.66,0,11.32.63,17.9,1-2.49-5.8.06-10.41,2.44-15,12.57-24.38,17.82-50.6,19.18-77.71.64-12.73-3.57-23.72-13.11-32.67a183.72,183.72,0,0,1-41.56-56.68c-13.53-29-17.39-59.58-13.87-91.26A217.47,217.47,0,0,1,2717.2,1122a21.45,21.45,0,0,0-2.32-19.7c-2.26-3.56-3.85-7.55-6.2-12.24a58.66,58.66,0,0,0-7.44,1.87c-15.61,5.94-26.65,17.14-35,31.19-10.12,16.94-16,35.48-20.32,54.61-3.78,17-6.88,34.08-11.46,50.8-20.13,73.47-64.27,128-131.2,164.14-32,17.28-65.65,30.26-101.47,37-49.42,9.36-97.1,3-143.16-16.69a310.55,310.55,0,0,1-46.49-24.94c-3.4-2.2-7.06-4-10.41-6.22-2.85-1.92-5.43-4.23-8.79-6.88,5.1-2.58,8.37-.67,11.73.88,29.66,13.66,60.12,25.06,92.09,32.12q82.25,18.15,160.39-13.33c36.9-14.9,71.17-34.43,99.95-62.34,10.38-10.07,19.43-21.53,28.9-32.51,1.71-2,2.52-4.73,3.74-7.13l-1.24-.89c-1.68,1.49-3.44,2.91-5,4.49-5.27,5.17-10.41,10.47-15.71,15.61-44.25,43-97.06,69-157.81,78.47-49.08,7.68-97.26,2.59-144.43-12.84-28.53-9.33-55.9-21.54-83.49-33.2-26.59-11.24-53.92-20.15-82.33-25.38-7.69-1.42-15.62-1.49-23.42-2.34a38.3,38.3,0,0,1-9-2.14c10.05-3.35,20.37-4.56,30.76-5.13,20.34-1.13,40.4,1.34,60.34,5,28.35,5.23,55.84,13.81,83.58,21.43,32.28,8.86,65,14.92,98.62,13.7,41-1.49,79.32-12.33,113.65-35.41,27-18.15,47.63-42.17,63.61-70.34a12,12,0,0,0,.72-2c-2.88-1.93-4.26.22-5.94,1.89a317.08,317.08,0,0,1-50,40.18q-83.36,54.26-181.38,37.53c-29.25-5-57.06-14.65-84.6-25.27-20.87-8-41.76-16.1-63.94-19.81-70.74-11.82-129,10.16-174.63,65.32-5.74,6.93-10.33,14.82-15.5,22.23a41.91,41.91,0,0,1-3.17,3.45c-1.76-6.94-.12-12.63,2.72-17.77,4.13-7.48,8.78-14.69,13.48-21.85,4-6.14,8.44-12,13.6-19.34-6.3,1.51-10.32,4.29-14.18,7.2-25.47,19.22-44.63,43.32-56.24,73.2-7.15,18.39-11,37.39-10.15,59a48.19,48.19,0,0,1-3.26-5.16c-5.95-13.77-6.64-28.14-4.57-42.75,7.52-53.22,34.25-95.15,75.93-128.09A285,285,0,0,1,2083.44,1214a298.35,298.35,0,0,1,72.55-4.17,19.32,19.32,0,0,0,6.77-.64q-108.35-22.31-202.78,36.17a44.08,44.08,0,0,1,2.91-4.32c11.81-13.83,26.7-23.6,42.69-31.78a239.85,239.85,0,0,1,80.88-24.36c12.73-1.55,25.55-2.38,38.37-3.87-21.94-4.28-44.17-3.79-66.34-2.19s-43.19,8.53-64,16.55c-21.12,8.15-38.31,22.46-57,34.56-2.8-3.89-.43-5.7,1.34-7.37,7.8-7.34,15.3-15.06,23.65-21.72,31.69-25.27,68-39.38,108.12-44.6,52.73-6.87,103.92.22,154.13,16.49,21.28,6.9,42.69,13.17,64.81,16.93,50.85,8.63,96.76-2.73,138.24-33.14,16.78-12.3,31.46-26.92,46.72-40.92,12.45-11.43,24.74-23,37.38-34.27,18.64-16.56,39.35-30,62.54-39.36,32.91-13.25,66.83-16,101.62-9.33,10.82,2.07,21.12,5.12,30.81,10.71,5.68,3.27,12.31,4.95,18.59,7.14,7.17,2.5,14.5,4.58,21.62,7.23,3.29,1.23,5.86,1.07,8.54-1.17,2.92-2.44,6-4.73,9.05-7a171.72,171.72,0,0,1,92.21-32.77c31-1.83,61.36,1.4,90.56,12.49a159.31,159.31,0,0,1,63.44,43.76c11,12.35,17.26,26.4,17,43.43-.28,16.5,3.91,32.53,7.27,48.61,1.6,7.68,2.93,15.42,4.12,23.17a62.9,62.9,0,0,1-3,31.67c-7.44,20.11-2.5,37.34,11.24,52.8,3.8,4.26,8,8.23,11.47,12.71,6.06,7.75,5.22,12.07-2.94,17.66-3.14,2.15-6.51,4-9.67,6.08-9.13,6.17-11.07,11.38-7.94,21.89.89,3,.76,5-1.49,7.66-2.64,3.14-4.38,7.27-5.67,11.25-2,6-4.07,11.64-10.07,14.93-3.57,2-4.07,5.58-4.24,9.27-.24,5.22-.22,10.49-.91,15.66-1.82,13.59-10,20.65-23.67,20.77-11.83.1-23-3-34.21-6.54-6.8-2.14-13.53-4.59-20.44-6.28-15-3.65-24.34.69-31,14.44a219.19,219.19,0,0,0-17.9,52.55c-3.31,16.48-3.78,33.08-2.71,49.77a51.85,51.85,0,0,0,8.08,24.88,235.69,235.69,0,0,0,14.06,19.76c12.49,15.62,24.85,31.36,38,46.4,19.15,21.86,34.14,46.38,47.1,72.14,16.25,32.3,31.68,65,47.47,97.54.72,1.47,1.5,2.9,2.21,4.27.73-.14,1.34-.06,1.52-.31,17.74-24.46,36.21-48.43,51-74.91,17.13-30.67,30.33-63.05,41.31-96.29,9.39-28.45,17.62-57.28,26.18-86,3.65-12.24,1.92-23.95-4.13-35.2-5.3-9.84-10.54-19.74-15.26-29.86a76.52,76.52,0,0,1-7.5-36.72c.68-13.13,5.35-23.51,18.61-28.49,7.67-2.88,10.36-9.23,11-16.9a63.51,63.51,0,0,1,1.6-12c2.6-9.41,8.05-12.56,17.75-10.86a14.28,14.28,0,0,1,3.45.85c7.64,3.5,15.48,5.76,24.07,5.42,2.29-.09,4.76,1.82,7,3.08,7,4,14,8.09,21,12.06,6.62,3.74,13.26,7.44,20,11a83.11,83.11,0,0,0,9.68,4.48c10.44,4,16,11.25,14.18,21.92-4.28,25.3-7.22,51-16.07,75.26a109.82,109.82,0,0,1-9.91,21.3c-15.89,25-25.91,52.38-33.77,80.68-14.77,53.17-29.26,106.42-44.27,159.52-10.62,37.6-23.49,74.4-41.33,109.3a461.91,461.91,0,0,1-32.11,54,86.8,86.8,0,0,1-10.1,12c-8.92,8.86-19.6,11.35-31.51,7.25a98.56,98.56,0,0,1-13.69-6c-32.95-17.29-61.93-39.94-88.58-65.73-7.07-6.84-9.47-6.85-16.24.28a70.55,70.55,0,0,0-17.72,33A608.42,608.42,0,0,1,2874.52,2037c-18.37,34.85-30.68,71.63-39.92,109.66-2.47,10.17-5.17,20.28-7.65,30.45-1.86,7.63-.45,10.11,7.23,11.39,14.08,2.35,28.24,4.24,42.33,6.47a1313.68,1313.68,0,0,1,142.19,30.77c99,27.19,192.78,66.53,281.11,118.84a669.89,669.89,0,0,1,79.86,55.1c17.32,14,30.23,31,36.26,52.63,11.35,40.71-4.55,85.34-39.27,109.84a213.62,213.62,0,0,1-24.43,14.72q-172.17,89.68-344.48,179.1c-32.31,16.75-65.13,32.5-97.38,49.37-30.82,16.13-60.52,34.24-88.23,55.3-11.89,9-22.8,19.48-33.5,30-4.27,4.18-7.32,9.92-9.95,15.41s-.53,8.07,5.63,7.66c6.64-.44,13.26-1.33,19.91-1.62a73.76,73.76,0,0,1,39.22,8.74,37.34,37.34,0,0,1,18.62,22.49c2.84,9.23.67,17-6.79,23-10.59,8.55-22.71,11.31-35.5,6.69-8.18-2.95-15.86-7.48-23.45-11.85s-14.81-9.41-23.25-14.84c.59,3.19.89,5.19,1.34,7.15,3.79,16.79,9.23,33,17.59,48.1a129.1,129.1,0,0,0,24.15,30.79,104,104,0,0,1,7.4,7.74c3.27,3.83,3.31,6.4.51,9.41-3.25,3.5-7.2,4.31-10.87,2a32.91,32.91,0,0,1-4.37-3.65,164.08,164.08,0,0,1-37.19-51.06c-3.44-7.26-6.76-14.58-10.86-23.42-.62,3-1.15,4.44-1.17,5.87a68,68,0,0,0,14.09,43.28c1.74,2.27,3.35,4.63,5,7,1.78,2.55,2.54,5.12.09,7.76s-6,3.47-9.05,1.53a25.75,25.75,0,0,1-5.72-5.27c-12.86-15.29-18-33.23-17.85-52.93a17.06,17.06,0,0,0-1.28-7.82c-.76,1.59-1.56,3.17-2.25,4.79q-11.07,25.92-22.1,51.86a106.69,106.69,0,0,0-8.13,52.39c1.41,15.14,3.81,30.2,5.75,45.29,1,8,2.5,16,.93,24.14-1.43,7.47-5.05,13.25-11.54,17.2a53.69,53.69,0,0,1-25,7.61c-7.36.44-13.22-3.38-18.36-8.28a197.08,197.08,0,0,1-31.79-39.34c-8.14-13.22-15-27.08-19.56-41.94-5.58-18.19-11-36.44-16-54.78-3-10.86-3.26-22.06-2.58-33.32.94-15.67,1.48-31.37,2.18-47.06.11-2.38.06-4.77.25-7.14,1.14-13.84-1.56-27-7.12-39.62-6.34-14.44-11.62-29.22-12.82-45.1-.4-5.43-.81-11,0-16.36,1.84-12.39,1.07-24.66.07-37-1.58-19.57,2.17-38.37,9.19-56.55a29.5,29.5,0,0,1,5.81-8.89c4.39-4.8,9.94-6.38,16.22-4a34.66,34.66,0,0,1,6.42,3,71.88,71.88,0,0,0,40.74,11.16,132.37,132.37,0,0,1,40.15,5.2c7.44,2.19,15,2.58,22.45-.22a22,22,0,0,1,5.6-1.06c7.43-.73,12.42,3,13.86,10.28.46,2.33.45,4.76,1,7.05,1.09,4.32,2.66,5.25,6.65,3.35a134,134,0,0,0,17-9.09c23-15.32,46-30.52,68.51-46.49,48.21-34.21,93.37-72.26,138.23-110.68,20.79-17.81,41.49-35.77,63-52.63a347.61,347.61,0,0,1,90.84-51.77c7.77-3,15.74-5.39,23.62-8.08,3.29-1.12,6.56-2.29,11.27-3.94-2.9-1.53-4.4-2.51-6-3.16-13.2-5.22-27.13-7-41.09-8.57-35.77-4.09-71.72-4.86-107.67-5.41q-65.76-1-131.14-7.81c-71.84-7.4-142.7-20.21-212.21-40a144.24,144.24,0,0,1-18-6.51c-11.28-4.9-21.82-3.78-31.8,3.11A65.45,65.45,0,0,0,2600,2432c-59.21,59.88-125.59,110.84-195.72,157.09-58.22,38.4-117.46,75.24-178,109.87a536.1,536.1,0,0,1-163.7,61.21c-16.79,3.3-33.73,6.09-50.26,10.39-30.76,8-59.55,21.25-87.8,35.54-63.07,31.91-125.36,65.25-185.72,102.1-48.59,29.68-96.48,60.35-140.16,97.1-12.2,10.27-24.16,20.83-36,31.5a79.86,79.86,0,0,0-10.47,11.65c-6.37,8.54-12.36,17.36-19.1,26.9,3.23-.24,6.12-.43,9-.68,13.51-1.2,27-2.48,40.53-3.56a24.05,24.05,0,0,1,7.75.65c3.44.88,4.89,3.79,4.94,7.08s-1.61,6-5.16,6.77a39.75,39.75,0,0,1-5.6,1.06c-17.55,1.49-35.1,2.89-52.65,4.39-2.55.22-5.07.8-8.74,1.4,1.83,2.87,3.14,5,4.52,7.07,9.17,13.79,16.35,28.46,19.83,44.76a36,36,0,0,1,.9,4.9c.35,5.16-2.13,8.84-6.4,9.76-3.65.78-5.84-1.08-8.12-6.31-4.56-10.44-9-20.92-14-31.16C1517.1,3115.8,1513.39,3110.6,1509.51,3104.21Zm1271.08-174.63c.83,2,.88,2.59,1.21,2.85,10.29,8.43,20.65,16.8,32.93,22.25a45.77,45.77,0,0,0,23.67,3.8c6-.65,9.33-4.43,9.49-10.46.14-5-2.32-8.61-6.06-11.5a38.57,38.57,0,0,0-23-8.44c-10.69-.25-21.38-.09-32.07.06C2784.84,2928.16,2783,2929,2780.59,2929.58Z" transform="translate(-1308.87 -1016.4)"/><path d="M2412.9,1161.26c-8.52,6.91-17.65,11.33-27.07,15.15-18.41,7.47-37.77,9.15-57.39,9.08-27.65-.09-54.23-6-80.33-14.65-42.85-14.13-83.92-32.18-121.35-57.58-14.92-10.12-28.68-22-42.82-33.21-1.77-1.4-2.6-4-4.3-6.73,4-.62,5.58,1.4,7.42,2.55a689.54,689.54,0,0,0,160.87,73.91c30,9.35,60.57,16.36,92.22,17.23a232.15,232.15,0,0,0,63.59-7.06C2406.46,1159.27,2409.55,1157.35,2412.9,1161.26Z" transform="translate(-1308.87 -1016.4)"/></svg>