<?xml version="1.0" encoding="UTF-8" standalone="no"?>
<!-- Uploaded to: SVG Repo, www.svgrepo.com, Generator: SVG Repo Mixer Tools -->

<svg
   width="800px"
   height="800px"
   viewBox="0 0 24 24"
   fill="none"
   version="1.1"
   id="svg2"
   sodipodi:docname="shooting-star-svgrepo-com.svg"
   inkscape:version="1.4.2 (ebf0e940, 2025-05-08)"
   xmlns:inkscape="http://www.inkscape.org/namespaces/inkscape"
   xmlns:sodipodi="http://sodipodi.sourceforge.net/DTD/sodipodi-0.dtd"
   xmlns="http://www.w3.org/2000/svg"
   xmlns:svg="http://www.w3.org/2000/svg">
  <defs
     id="defs2" />
  <sodipodi:namedview
     id="namedview2"
     pagecolor="#ffffff"
     bordercolor="#000000"
     borderopacity="0.25"
     inkscape:showpageshadow="2"
     inkscape:pageopacity="0.0"
     inkscape:pagecheckerboard="0"
     inkscape:deskcolor="#d1d1d1"
     inkscape:zoom="0.30405633"
     inkscape:cx="-147.99889"
     inkscape:cy="-804.1273"
     inkscape:window-width="1744"
     inkscape:window-height="1314"
     inkscape:window-x="0"
     inkscape:window-y="25"
     inkscape:window-maximized="0"
     inkscape:current-layer="path2" />
  <g
     id="path2"
     style="opacity:1">
    <path
       id="path4"
       style="baseline-shift:baseline;display:inline;overflow:visible;fill:none;stroke:#000000;stroke-width:0.03;stroke-linecap:round;stroke-linejoin:round;stroke-dasharray:none;stroke-opacity:1;enable-background:accumulate;stop-color:#000000;stop-opacity:1"
       d="m 7.5119396,22.965452 c 0.365835,-0.09814 0.644835,-0.394531 0.720703,-0.765625 l 0.570313,-2.785156 2.3046874,-1.050781 c 0.739116,-0.337226 0.789029,-1.368353 0.08594,-1.775391 l -2.5273444,-1.458984 0.154297,-2.539063 c 0.05401,-0.88988 -0.995318,-1.400365 -1.662109,-0.808594 l -2.136719,1.894532 -2.794922,-0.574219 c -0.873295,-0.179062 -1.52677796,0.7876 -1.035156,1.53125 l 1.402342,2.123047 -1.458985,2.527344 c -0.40760696,0.704725 0.152629,1.575193 0.962891,1.496094 l 2.519531,-0.246094 1.886719,2.128906 c 0.251402,0.283776 0.641649,0.401002 1.007812,0.302734 z M 13.98109,17.878941 c 1.839625,-0.736071 5.658907,-2.383148 7.487881,-5.583853 0.274435,-0.479956 0.286423,-1.158688 -0.238723,-1.499558 -0.479956,-0.274435 -1.145271,-0.237199 -1.687624,0.355107 -1.348638,2.175422 -4.514562,4.457874 -5.958112,5.137123 -0.51204,0.205291 -1.116888,0.735635 -0.912416,1.248003 0.205291,0.512041 0.786461,0.476494 1.308994,0.343176 z M 10.785334,15.03803 c 0.255921,0.07017 0.645999,-0.136501 0.876525,-0.267951 2.54151,-1.452139 8.396704,-6.5538242 9.924152,-10.8665003 0.185265,-0.519911 0.0038,-1.3826455 -0.650243,-1.680314 -0.721396,-0.3643619 -1.598919,0.255773 -1.941362,0.9546147 -1.91586,4.4186783 -5.904537,9.0302876 -7.984253,10.4008626 -0.34605,0.363256 -0.783315,0.496303 -0.779463,1.082023 0.131639,0.230391 0.298624,0.307533 0.554644,0.377265 z m -0.665173,-3.434349 c 0.305861,-0.11185 0.598097,-0.407071 0.785602,-0.594616 1.227592,-1.2275924 3.935361,-3.3130092 5.251289,-5.9448642 0.381411,-0.6955163 -0.0711,-1.6142506 -0.609956,-1.7940612 -0.449257,-0.2023124 -1.135914,-0.1681113 -1.539598,0.3483639 -1.084073,2.168145 -3.046752,5.166794 -4.1531599,6.273202 -0.3904236,0.3905075 -0.780807,0.9776745 -0.4615385,1.4799965 0.1422562,0.223819 0.4519952,0.292929 0.7273614,0.231979 z"
       sodipodi:nodetypes="ccccccccccccccccccccccccccccccccccccccscc" />
  </g>
</svg>
