<?xml version="1.0" encoding="UTF-8" standalone="no"?>
<svg
   width="518"
   height="296"
   viewBox="0 0 518 296"
   version="1.1"
   id="svg2"
   sodipodi:docname="shooting-star.svg"
   inkscape:version="1.4.2 (ebf0e940, 2025-05-08)"
   xmlns:inkscape="http://www.inkscape.org/namespaces/inkscape"
   xmlns:sodipodi="http://sodipodi.sourceforge.net/DTD/sodipodi-0.dtd"
   xmlns="http://www.w3.org/2000/svg"
   xmlns:svg="http://www.w3.org/2000/svg">
  <defs
     id="defs2" />
  <sodipodi:namedview
     id="namedview2"
     pagecolor="#ffffff"
     bordercolor="#000000"
     borderopacity="0.25"
     inkscape:showpageshadow="2"
     inkscape:pageopacity="0.0"
     inkscape:pagecheckerboard="0"
     inkscape:deskcolor="#d1d1d1"
     inkscape:zoom="1.1230269"
     inkscape:cx="209.25589"
     inkscape:cy="95.723439"
     inkscape:window-width="1552"
     inkscape:window-height="1292"
     inkscape:window-x="544"
     inkscape:window-y="124"
     inkscape:window-maximized="0"
     inkscape:current-layer="svg2" />
  <path
     d="m 231.61861,265.17922 -29.31597,-1.7638 -10.63722,27.2704 c -5.85041,14.99802 -10.97385,27.24944 -11.38604,27.22464 -0.41222,-0.0248 -4.00857,-12.58976 -7.9917,-27.92155 -7.12494,-27.4217 -7.28899,-27.88565 -10.09588,-28.49372 -1.56984,-0.34028 -14.97371,-1.15592 -29.789,-1.8135 -14.81461,-0.65685 -26.68151,-1.63364 -26.37153,-2.17036 0.30997,-0.53672 11.35318,-7.79277 24.53959,-16.12553 13.18706,-8.33203 24.16132,-15.31312 24.38731,-15.51345 0.22672,-0.201 -3.05804,-13.3295 -7.29708,-29.1761 -6.69962,-25.03649 -7.39986,-28.57448 -5.3476,-26.99812 1.29875,0.99622 11.65176,9.41559 23.00701,18.70779 18.58736,15.21163 20.86073,16.82186 22.80405,16.15884 1.18686,-0.40534 12.39168,-7.41576 24.89854,-15.58045 12.50753,-8.16392 23.02626,-14.82673 23.3756,-14.80501 0.35009,0.021 -2.68712,8.58689 -6.74855,19.03491 l -7.38316,18.99743 3.7449,-1.5251 c 25.07314,-10.20534 53.44397,-41.97409 65.12962,-55.42728 13.05233,-23.15884 48.33311,-82.541143 58.85587,-127.483522 l 12.46219,-45.634849 4.65932,18.41002973 c 4.76301,18.81793127 6.17289,29.61394527 7.67397,42.20452727 -0.55153,16.437395 2.67597,30.835866 2.85972,31.043144 0.49221,0.555239 18.68996,-20.275726 24.48166,-31.978316 2.76451,-5.587188 14.08401,-33.2160699 18.88033,-44.7284921 4.79491,-11.5125039 8.96358,-20.9169829 9.26286,-20.8989829 0.57247,0.03373 -1.23715,32.4579394 -1.1586,41.478287 -2.15567,14.156363 -4.0975,23.674293 -5.79591,36.741864 -1.20917,5.637762 -2.59534,10.655 -4.18086,15.048644 l -8.08226,28.253818 26.16345,-18.465097 c 12.01675,-10.681194 11.94669,-10.437968 17.53848,-16.098428 10.53957,-9.753873 21.37418,-25.045868 24.07415,-30.809119 1.80475,-4.105606 3.51282,-7.451957 3.79656,-7.434893 0.59148,0.03559 -9.80262,36.571433 -12.54984,47.93512 -14.96303,42.491205 -39.26998,58.451525 -52.06525,73.635095 -17.03057,19.5999 -68.18134,52.76478 -76.35763,56.11497 -7.53643,4.38616 -50.9335,25.38231 -95.43001,32.34813 -5.65302,0.88502 -17.64224,3.16817 -17.93631,3.42888 -0.29333,0.26003 6.48937,6.12481 15.07171,13.03221 8.58232,6.90742 16.04731,13.22977 16.58734,14.04998 0.68548,1.04008 -7.87964,0.95831 -28.33386,-0.27305"
     stroke="none"
     fill="#060606"
     fill-rule="evenodd"
     id="path1"
     sodipodi:nodetypes="cccscccscsccccccccccccccsccccccccccscccssscc" />
</svg>
