<?xml version="1.0" encoding="UTF-8" standalone="no"?>
<svg
   width="518"
   height="296"
   viewBox="0 0 518 296"
   version="1.1"
   id="svg2"
   sodipodi:docname="trace.svg"
   inkscape:version="1.4.2 (ebf0e940, 2025-05-08)"
   xmlns:inkscape="http://www.inkscape.org/namespaces/inkscape"
   xmlns:sodipodi="http://sodipodi.sourceforge.net/DTD/sodipodi-0.dtd"
   xmlns="http://www.w3.org/2000/svg"
   xmlns:svg="http://www.w3.org/2000/svg">
  <defs
     id="defs2" />
  <sodipodi:namedview
     id="namedview2"
     pagecolor="#ffffff"
     bordercolor="#000000"
     borderopacity="0.25"
     inkscape:showpageshadow="2"
     inkscape:pageopacity="0.0"
     inkscape:pagecheckerboard="0"
     inkscape:deskcolor="#d1d1d1"
     inkscape:zoom="0.95128925"
     inkscape:cx="104.06929"
     inkscape:cy="102.49249"
     inkscape:window-width="1544"
     inkscape:window-height="1292"
     inkscape:window-x="914"
     inkscape:window-y="283"
     inkscape:window-maximized="0"
     inkscape:current-layer="svg2" />
  <path
     d="m 397.47933,134.05664 5.55873,-28.83812 29.05614,-3.54481 c 15.98019,-1.949774 29.11929,-3.876132 29.19745,-4.281618 0.0782,-0.405486 -11.20304,-7.004446 -25.06883,-14.66402 -24.79945,-13.70042 -25.20825,-13.974371 -25.10151,-16.844372 0.0595,-1.605202 2.59217,-14.792878 5.62784,-29.30872 3.03622,-14.515014 5.03175,-26.253638 4.43493,-26.086389 -0.59681,0.167248 -10.36399,9.066968 -21.70558,19.776051 -11.34103,10.709911 -20.82474,19.610983 -21.07484,19.78025 -0.25094,0.169829 -12.15533,-6.266968 -26.45642,-14.302098 -22.59413,-12.697067 -25.84811,-14.252532 -24.8297,-11.873534 0.64315,1.505168 6.23319,13.622171 12.42035,26.926538 10.12897,21.778139 11.12536,24.37973 10.00129,26.09803 -0.68691,1.049317 -10.2562,10.166491 -21.26649,20.258918 -11.00973,10.093254 -20.07217,18.631934 -20.13772,18.975754 -0.0664,0.34439 8.98499,-0.47454 20.11371,-1.81912 l 20.23473,-2.4432 -2.40587,3.24993 c -16.10245,21.76057 -53.91271,41.37029 -69.84286,49.35611 -25.67163,6.90379 -59.05032,11.21295 -105.19845,10.26597 l -47.29976,0.76023 16.68031,9.07776 c 17.04978,9.27932 33.20097,15.62008 45.02642,20.19553 16.06103,3.54055 40.1164,5.34182 40.27165,5.57122 0.41589,0.61449 -49.721,15.636 -62.49407,18.34583 -6.09811,1.29314 -27.1739,5.45057 -39.51598,7.24323 -12.34181,1.79127 -22.48615,3.49843 -22.5429,3.79282 -0.10924,0.56297 31.75146,6.84785 40.47077,9.1601 14.24887,1.421 23.95108,1.8993 37.03179,3.49337 5.76154,0.22618 18.53309,-0.18605 23.18263,-0.63289 l 37.38235,-7.88784 -35.56905,25.02255 c -13.32676,8.99376 -17.45352,12.10802 -24.3235,16.12203 -12.06219,7.79258 -29.56276,14.49808 -35.81544,15.68505 -4.42485,0.73063 -8.09018,1.55582 -8.14399,1.83494 -0.11215,0.58184 37.85995,-0.43052 49.54996,-0.27491 44.87422,-3.96233 60.94169,-21.89204 78.82327,-30.52389 19.55771,-14.62566 47.64676,-39.97507 52.91929,-47.06563 6.11754,-6.21383 30.11395,-42.56136 47.89309,-83.9421 2.25873,-5.25718 7.44281,-16.30613 7.76828,-16.5264 0.32464,-0.21971 4.3249,7.80516 8.88912,17.83195 4.56423,10.02679 8.83865,18.82608 9.49939,19.55258 0.83767,0.92192 2.88174,-7.39612 6.75947,-27.51712"
     stroke="none"
     fill="#060606"
     fill-rule="evenodd"
     id="path1"
     sodipodi:nodetypes="cccscccscsccccccccccccccsccccccccccscccssscc" />
</svg>
