<?xml version="1.0" encoding="UTF-8" standalone="no"?>
<!-- Uploaded to: SVG Repo, www.svgrepo.com, Generator: SVG Repo Mixer Tools -->

<svg
   fill="#000000"
   width="800px"
   height="800px"
   viewBox="0 0 32 32"
   version="1.1"
   id="svg1"
   sodipodi:docname="knife-fork-svgrepo-com.svg"
   inkscape:version="1.4.2 (ebf0e940, 2025-05-08)"
   xmlns:inkscape="http://www.inkscape.org/namespaces/inkscape"
   xmlns:sodipodi="http://sodipodi.sourceforge.net/DTD/sodipodi-0.dtd"
   xmlns="http://www.w3.org/2000/svg"
   xmlns:svg="http://www.w3.org/2000/svg">
  <defs
     id="defs1" />
  <sodipodi:namedview
     id="namedview1"
     pagecolor="#ffffff"
     bordercolor="#000000"
     borderopacity="0.25"
     inkscape:showpageshadow="2"
     inkscape:pageopacity="0.0"
     inkscape:pagecheckerboard="0"
     inkscape:deskcolor="#d1d1d1"
     inkscape:zoom="0.9375"
     inkscape:cx="400"
     inkscape:cy="373.86667"
     inkscape:window-width="2288"
     inkscape:window-height="1186"
     inkscape:window-x="0"
     inkscape:window-y="25"
     inkscape:window-maximized="0"
     inkscape:current-layer="svg1" />
  <title
     id="title1">knife-fork</title>
  <path
     d="m 18.207,16.587 2.143333,-2.203 c 1.094,0.471 2.3,0.454 3.181,-0.426 L 30.671666,6.8186667 29.377,5.5666667 24.326333,10.65 23.466666,9.7926667 l 5.03,-5.2333334 -1.034,-0.9913333 -5.224333,5.263 -0.945,-0.901 5.16,-5.413 -0.987,-0.987 -7.183,7.182 c -0.917,0.917 -0.943,2.066 -0.492,3.116 L 15.514,13.896 3.9273333,2.6953333 c -3.93566664,4.163 2.196,13.2339997 8.9189997,13.8813337 l -9.1349997,8.373666 c -1.4693333,2.135 1.3973333,4.657 3.411,3.411 l 8.4699997,-8.892666 8.489,8.787666 c 2.073,0.889 4.822,-1.213667 3.538,-3.538 L 18.208,16.588 Z"
     id="path1"
     sodipodi:nodetypes="ccccccccccccccccccccccccc" />
</svg>
