<?xml version="1.0" encoding="UTF-8" standalone="no"?>
<svg
   id="Layer_1"
   version="1.1"
   viewBox="0 0 500 500"
   sodipodi:docname="skier.svg"
   inkscape:version="1.4.2 (ebf0e940, 2025-05-08)"
   xmlns:inkscape="http://www.inkscape.org/namespaces/inkscape"
   xmlns:sodipodi="http://sodipodi.sourceforge.net/DTD/sodipodi-0.dtd"
   xmlns="http://www.w3.org/2000/svg"
   xmlns:svg="http://www.w3.org/2000/svg">
  <sodipodi:namedview
     id="namedview1"
     pagecolor="#ffffff"
     bordercolor="#000000"
     borderopacity="0.25"
     inkscape:showpageshadow="2"
     inkscape:pageopacity="0.0"
     inkscape:pagecheckerboard="0"
     inkscape:deskcolor="#d1d1d1"
     inkscape:zoom="1.1336093"
     inkscape:cx="305.66086"
     inkscape:cy="165.4009"
     inkscape:window-width="1984"
     inkscape:window-height="1186"
     inkscape:window-x="0"
     inkscape:window-y="25"
     inkscape:window-maximized="0"
     inkscape:current-layer="Layer_1" />
  <!-- Generator: Adobe Illustrator 29.0.1, SVG Export Plug-In . SVG Version: 2.1.0 Build 192)  -->
  <defs
     id="defs1">
    <style
       id="style1">
      .st0 {
        stroke: #000;
        fill: none;
      }
    </style>
  </defs>
  <path
     class="st0"
     d="m 199.24416,188.81187 c -0.75903,3.06017 -0.98146,3.97525 -1.68404,6.54202 -1.57991,3.38192 -2.77794,5.262 -3.91596,7.75798 -1.1807,2.58958 -6.13229,12.00681 -6.13229,12.00681 0,0 -1.51187,-10.41868 -3.11187,-13.21868 -1.6,-2.8 -3.3,-6.5 -3.3,-7.6 0,-1 0.48813,-6.21187 0.98813,-9.61187 0.5,-3.5 0.5288,-5.82373 0.5288,-5.82373 0,0 8.39903,0.69065 10.19903,0.19065 1.9,-0.5 9.38911,-1.87802 9.38911,-1.87802 -0.3,1.5 -2.96091,11.63484 -2.96091,11.63484 z M 294.4,244.7 c -4.9,-1.5 -7.4,-1 -9.5,-2 -2.1,-1 -4.4,-4.6 -4.4,-4.6 0,0 -1.6,-3.2 -2.8,-3.8 -1.3,-0.6 -3,-3.8 -3,-3.8 0,0 5.3,-25.8 4.9,-29.4 -0.4,-3.6 0.6,-4.9 2.9,-9.7 2.4,-4.9 4.8,-6.2 5.9,-10.2 1.1,-4 2.5,-4.2 2.7,-8.7 0.1,-4.6 0.7,-5.6 0.8,-8 0.1,-2.4 4.8,-11.1 4.8,-11.1 1.2,-0.1 8.1,1.9 11.6,3.2 3.5,1.2 9.4,0.9 10.5,1.8 1.1,0.9 2.5,0 3.8,1.6 1.3,1.7 8.16126,2.98817 11.16126,3.48817 2.9,0.6 6.7,2 8.4,2.3 1.7,0.3 4.8,0.2 7,1.4 2.3,1.2 10,3.2 10,3.2 l 1.5,-0.3 8.56923,6.46783 c 0,0 0.30747,0.35099 -0.65209,1.96616 l -0.61714,1.01868 C 345.36126,203.24084 319.7,234.3 298.4,256.7 c 0,-1.7 -0.1,-3.5 -0.6,-4.8 -1.3,-4.1 1.6,-5.7 -3.2,-7.2 z M 82.514774,217.14834 c 28.595796,4.80421 34.619136,5.35227 79.419136,13.79994 -0.25654,-3.16122 -0.1,-2.56542 0,-3.16542 0.6,-2.6 1.2,-4.8215 1.2,-4.8215 0,0 -0.5,-0.4 -1.2,-1 -0.7,-0.5 -1.24343,-5.82272 -1.44343,-8.42272 -0.2,-2.6 -5.89048,-11.43864 -6.19048,-15.23864 -0.4,-3.8 -5.9,-15.2 -5.9,-15.2 0,0 -1.5,-2.3 -1.7,-5.7 -0.3,-3.4 0.2,-6.7 2.1,-12 1.9,-5.3 2.1,-5.2 2.8,-6.3 0.7,-1.1 3.6,-4.3 7.5,-6.9 3.8,-2.7 3.9,-2.1 6.6,-3 2.7,-0.9 7.5,-3.2 11.7,-5.2 4,-2.1 6.3,-2.9 11.4,-5.1 5.1,-2.3 12.7,-5.2 13.8,-5.2 1.1,0.1 1.4,-2.7 4.6,-5.5 3.2,-2.7 16.4,-14.2 16.4,-14.2 0,0 0.1,-5.3 2.2,-9.9 2.1,-4.5 2.7,-4.6 7.4,-8.1 4.8,-3.5 2.8,-2.5 5,-4.7 2.2,-2.2 2.8,-3.3 5.9,-3.8 3.1,-0.5 3.3,-0.1 6.6,2.5 3.2,2.6 3.5,2.1 3.5,2.1 l 3.7,-6.4 v -2.5 l 0.9,-5.7 c 0,0 2.2,-8.2 5.5,-12.2 3.3,-4 13.7,-10.4 21.3,-9.1 7.6,1.3 19.5,7.2 19.5,7.2 0,0 8.6,4.9 11.9,12.8 3.2,8 1.1,16.6 1.1,16.6 0,0 0.3,0.2 0.4,0.6 0.1,0.4 -0.7,7.8 -3.4,12 -2.7,4.3 -6.9,6.1 -6.9,6.1 l -3.3,5.4 c 0,0 3.8,3.3 6,3.7 2.3,0.4 1.4,0.2 4.2,1.5 2.8,1.2 2.9,1.8 5.2,2.6 2.3,0.8 2.3,1.1 4.8,2.7 2.6,1.6 3.9,2 8.3,3.2 4.3,1.2 4.5,2.1 6.9,3.6 2.4,1.5 3.3,2.3 5.7,3.6 2.4,1.3 5.7,3.7 9.2,5.8 3.5,2.1 14.8,6.7 15.4,6.9 0.6,0.2 1.1,0.7 1.9,1.3 0.8,0.5 2.4,1.5 3.1,2 0.7,0.5 12.9,5.7 13.9,6.6 1,0.9 2.4,2 3.4,3.5 1.1,1.5 0.5,1.6 0.6,2.9 0.1,1.4 0.3,8.8 0.3,8.8 0,0 -0.8,1.2 -1,1.8 -0.2,0.6 -0.9,1.2 -1.1,2 -0.3,0.8 -1.9,1.1 -2.2,1.5 -0.2,0.4 -0.9,2.5 -2.4,3.1 -1.5,0.6 -5.4,0.2 -5.8,0.1 -0.2,-0.2 -3.11618,0.40392 -6.11618,0.20392 l -74.39796,83.11777 c -0.2,1 0.7943,3.18065 0.7943,3.18065 0,0 7.81984,15.49766 12.01984,23.09766 4.2,7.5 5.7,9.2 10,14.3 4.3,5.1 1.6,4.6 2.8,11.6 1.1,6.9 1.8,31.9 3.9,35 2.1,3.1 3,3.8 3,3.8 0,0 4.7,3.5 6.7,4.8 2.1,1.3 4.1,3.1 7.6,7.7 3.6,4.6 8.4,12.8 8.4,12.8 0,0 27.3,16.3 28.1,16.4 0.8,0.2 58.1,18.3 63.2,19.3 5.2,1 15.8,0.2 17.3,1.6 1.5,1.3 -0.8,4.1 -0.8,4.1 0,0 23,2.7 26.1,4.7 l -0.4,-0.5 c 3.1,2.1 -12.4,14.3 -18.7,14.2 -6.4,-0.1 -18.64489,-5.55781 -18.64489,-5.55781 0,0 -17.39488,7.05185 -24.19488,5.75185 -6.9,-1.3 -284.37268,-105.1202 -284.37268,-105.1202 0,0 22.79706,-23.64735 26.19706,-23.54735 3.3,0.1 85.31539,36.37351 85.31539,36.37351 l 0.7,-3.6 c 0.1,-0.4 1.2,-2.8 1.2,-2.8 0,0 -9.8,-16.6 -9.9,-17.6 -0.1,-1 2.1,-3.1 2.1,-3.1 h 2.6 c 0,0 0,-0.5 -0.1,-2.2 -0.2,-1.7 0.2,-1.9 1.7,-5.4 1.5,-3.5 0.6,-33.5 0.6,-33.5 0,0 -10.9,-0.7 -28,-1.8 -17.2,-1.2 -28.7,-5.9 -35,-19.5 -6.2,-13.6 -2.7,-14.4 -2.7,-14.4 0,0 -1.3,0.3 -4.2,0.5 -2.8,0.2 -4.9,-1.1 -4.9,-1.1 0,0 -1.1,1.4 -2.8,1.6 -1.6,0.2 -3.3,-1.2 -3.3,-1.2 0,0 -0.8,0.4 -3.6,-0.5 -2.8,-0.9 -3.67398,-0.97244 -4.37398,-4.57244 l -0.34331,-1.57522 -82.466057,-16.33379 c 0.05215,-1.58732 0.198122,-7.17021 0.198121,-7.17021 z"
     id="path1"
     sodipodi:nodetypes="ccsscccccccscccsccccccccccccccccccscscccccsccscccsscssssccscccccscccsscccccsscccccccscsscccscccccccccscsscccccccscccscscsccsccsccccccccc" />
</svg>
