<?xml version="1.0" encoding="UTF-8"?>
<svg id="Layer_1" xmlns="http://www.w3.org/2000/svg" version="1.1" viewBox="0 0 500 500">
  <!-- Generator: Adobe Illustrator 29.0.1, SVG Export Plug-In . SVG Version: 2.1.0 Build 192)  -->
  <defs>
    <style>
      .st0 {
        stroke: #000;
        fill: none;
      }
    </style>
  </defs>
  <path class="st0" d="M490,55.6c-2.9-.4-8.2.4-8.2.4,0,0,1.6-2.5-.9-3.1-2.5-.6-8.1,1.1-8.1,1.1,0,0,3.7-3.6.5-5.4-3.2-1.9-11.2.5-14.6,2.7-3.4,2.2-4.2,3.8-6.5,4-2.3.2-4.3,1-7.5,0-3.2-1-6.8-1.4-10.9-1-4.2.4-25.2,3.3-32.4,3.1-7.1-.3-14.5,2.4-20.2,4.4s-7.4,2.4-17.2,4.2c-9.8,1.7-10.3,1.7-15.3,1.7s-8.1,4.9-10.4,5.8c-2.2.9-4.9-1.1-8,.4-3.1,1.5-5,2.9-6.8,3.1-1.7.1-2.7-1.6-6.7-1.1-3.9.5-6.4,2.2-9.6,2.3-3.2.1-5.9-1.7-10.2-1.6-4.3.1-8.4,1.2-11.7,2.1-3.3.9-9.4-.3-9.4-.3,0,0-2.1-7.1-6-11.8-3.9-4.7-6.7-4.2-10.3-5.6-3.7-1.5-5.2-7.4-8.4-8.6-3.2-1.2-3.9-1.2-3.9-1.2,0,0-1.6-12.9-10.3-20.2-8.7-7.2-21.4-9.7-34.8-6.1-13.4,3.6-18.2,4.9-22.2,18.7-3.9,13.8-1.6,30.1-1.1,32.3.5,2.2,4.3,6.9,4.3,6.9,0,0,1.2,2.8,1,3.8,0,.9.2,7.3.2,7.3-2.4,1.6-5.6,2.6-10.2,5.1-4.7,2.6-8,6-9.6,6.9-1.6.9-.3-.1-4.7,1.8-4.4,2-6.4,3.1-8.5,4.8-2.1,1.7-11.3,8.7-15.9,11.8-4.6,3.1-8,5.3-10.3,9.5-2.3,4.2-18.2,16.1-21.9,23.7-3.7,7.6-4.7,11.6-6.4,15.5-1.7,3.9-15.5,19.7-19.5,25.5-3.9,5.9-3.7,3.9-10.8,11.1-7.1,7.1-11.6,11.3-13,15.5-1.5,4.2,2,7.9,2,7.9l-6.9,4.2s-12.5-5.1-21.3-3.2c-8.7,2-16.1,6-18.3,14.6-2.2,8.6-2.3,14.8,6,23.8,8.4,9.1,90.1,77.9,116.4,100,26.4,22.1,78.8,78.1,96.3,88.7,17.5,10.6,78.6,16.2,83.2,15.6,4.5-.6,3.8-2.9,2.2-3.9-1.6-1-13.5-4.4-22.4-12.3-8.8-7.8-50.6-45.8-50.6-45.8,0,0,4.4-3.7,5.7-8.6,1.2-4.9.2-6.1,2-8.3s5.4-5.6,5.2-8.1c-.2-2.4-1.5-5.6-1.5-5.6l2.2-3.9s6.7,0,9.4-2.7c2.7-2.7,13-22.1,14.5-30,1.5-7.9,2.4-22.1,2.4-22.1l7.4-41.3s5.1-2.2,9.8-4.2c4.7-2,5.9-3.4,9.4-3.9,3.4-.5,9.8-4.4,11.1-5.9,1.2-1.5,3.4-12.3,6.2-16,2.7-3.7,6.2-6.6,6.2-6.6,0,0,.6-17.6-.9-25.7-1.5-8.1,1-8.1-.3-15.2-1.2-7.1-8.1-42-7.9-48.2.3-6.1,2.5-11.8,2.5-11.8,0,0,1.2-2.9,5.2-3.2,3.9-.3,37.4-16.5,47.7-20.4,10.3-3.9,12.3-3.7,15.5-8.3,3.2-4.7,4.2-7.4,7.4-8.3,3.2-1,2.4-1.7,11.3-2.7,8.9-1,15.8-3.9,21.2-6.6,5.4-2.7,7.1-2.2,14-7.1,6.9-4.9,8.9-8.1,11.1-10.1s5.7-5.1,5.7-5.1c0,0,3.3-1.4,7.8-1.4s8.1.7,13.4-.4c5.3-1.1,6.7-3.3,4.9-5.4-1.7-2.1-8.1-2.7-8.1-2.7,0,0,9-.4,10.9-3,2-2.6,1.8-5.7-1.1-6.1ZM114.3,261.1c-.2,5.2-1.5,4.9-3.7,9.4-2.2,4.4-4.7,11.3-4.7,11.3l-8.1.7s-26.8-28.4-26.5-29.2c.4-.9-1-2.5,2.7-2.8,3.7-.4,7.8-.5,10.5-2.6,2.7-2.1,13.2-9.5,15.4-13.2,2.2-3.7-.3-3.9,5.4-6.4,5.7-2.5,12.5-11.7,12.5-11.7-1.5,5.9-3.2,39.3-3.4,44.5ZM164.7,173.5c3.4-2.9,11.6-14,13.8-16.5s3.4-1.2,7.9,1c4.4,2.2,10.1,7.6,11.8,11.8,1.7,4.2-2.4,3.4-5.7,10.6,0,0-5.9-1.5-11.3-.6-5.4.9-23.4-1.1-23.4-1.1,0,0,3.4-2.2,6.9-5.1ZM221.9,283.8c-1.5,7.3-1.2,6.4-2,12.8-.7,6.4-2,14-3.9,21.9-2,7.9-1.7,10.3-3.9,18.9-2.2,8.6-3.7,15-3.9,18.9-.3,3.9-.5,6.4-.7,7.9-.2,1.5-2,2.2-4.7,4.9-2.7,2.7-5.2,7.8-5.2,7.8,0,0-54.6-51.1-52.7-53.1,2-2,7.4-7.4,9.4-11.8,2-4.4,3-7.1,3-7.1,0,0,4.2-9.1,6.2-12.5,2-3.4,7.4-8.9,10.8-14.7,3.4-5.9,2.4-21.6,2-29l.4-4c0,0,1.8,3.6,8.4,7.7,6.7,4.2,27.8,10.6,33,11.3,5.2.7,5.4.5,5.4,5.9s0,6.9-1.5,14.3Z"/>
</svg>