<?xml version="1.0" encoding="UTF-8" standalone="no"?>
<!-- Created with Inkscape (http://www.inkscape.org/) -->

<svg
   version="1.1"
   id="svg1"
   width="2304"
   height="1152"
   viewBox="0 0 2304 1152"
   xmlns:xlink="http://www.w3.org/1999/xlink"
   xmlns="http://www.w3.org/2000/svg"
   xmlns:svg="http://www.w3.org/2000/svg">
  <g
     id="layer-MC0"
     transform="translate(-2324)">
    <path
       id="path51"
       d="m 0,0 c -3.613,5.862 -7.926,11.222 -13.431,15.471 -6.296,4.861 -8.671,5.219 -15.114,0.334 -11.422,-8.659 -22.237,-18.048 -31.258,-29.316 -11.79,-14.724 -18.681,-31.751 -23.836,-49.682 -0.215,-0.747 -0.415,-1.413 -0.611,-2.043 h 14.343 l 0,-14.503784 h 18 l 0,14.503784 h 13.042 c -1.367,2.219 -2.257,4.988 -2.867,8.318 -3.76,20.519 -0.981,27.349 17.413,36.989 7.132,3.738 14.496,7.032 21.64,10.749 C 2.411,-6.53 2.95,-4.786 0,0 Z"
       style="fill:none;stroke:#000000"
       transform="matrix(1.3333333,0,0,-1.3333333,3470.2224,450.63373)"/>
  </g>
</svg>
